<?xml version="1.0" standalone="no"?>
<!DOCTYPE svg PUBLIC "-//W3C//DTD SVG 1.1//EN" "http://www.w3.org/Graphics/SVG/1.1/DTD/svg11.dtd" >
<svg xmlns="http://www.w3.org/2000/svg">
<metadata>
This is a custom SVG font generated by IcoMoon.
<iconset id="Fieldbook-UI" name="Fieldbook UI"></iconset><author name="NineCollective" href="http://ninecollective.com"></author>
</metadata>
<defs>
<font id="Fieldbook-UI" horiz-adv-x="512" >
<font-face units-per-em="512" ascent="480" descent="-32" />
<missing-glyph horiz-adv-x="512" />
<glyph unicode="&#x21;" d="M 96.00,416.00 L 416.00,416.00 L 416.00,32.00 L 96.00,32.00 L 96.00,416.00 ZM 32.00,480.00 L 32.00-32.00 L 480.00-32.00 L 480.00,480.00 L 32.00,480.00 ZM 128.00,352.00L 160.00,352.00L 160.00,320.00L 128.00,320.00zM 128.00,256.00L 160.00,256.00L 160.00,224.00L 128.00,224.00zM 128.00,160.00L 160.00,160.00L 160.00,128.00L 128.00,128.00zM 192.00,352.00L 384.00,352.00L 384.00,320.00L 192.00,320.00zM 192.00,256.00L 384.00,256.00L 384.00,224.00L 192.00,224.00zM 192.00,160.00L 384.00,160.00L 384.00,128.00L 192.00,128.00z" data-tags="document-line-item" />
<glyph unicode="&#x22;" d="M 93.28,352.00 L 418.72,352.00 C 416.949,346.997 416.00,341.611 416.00,336.00 C 416.00,309.493 437.493,288.00 464.00,288.00 C 469.611,288.00 474.997,288.949 480.00,290.72 L 480.00,157.28 C 474.997,159.051 469.611,160.00 464.00,160.00 C 437.493,160.00 416.00,138.507 416.00,112.00 C 416.00,106.389 416.949,101.003 418.72,96.00 L 93.28,96.00 C 95.051,101.003 96.00,106.389 96.00,112.00 C 96.00,138.507 74.507,160.00 48.00,160.00 C 42.389,160.00 37.003,159.051 32.00,157.28 L 32.00,290.72 C 37.003,288.949 42.389,288.00 48.00,288.00 C 74.507,288.00 96.00,309.493 96.00,336.00 C 96.00,341.611 95.051,346.997 93.28,352.00 ZM 0.00,384.00 L 0.00,336.00 L 0.00,112.00 L 0.00,64.00 L 48.00,64.00 L 464.00,64.00 L 512.00,64.00 L 512.00,112.00 L 512.00,336.00 L 512.00,384.00 L 464.00,384.00 L 48.00,384.00 L 0.00,384.00 ZM 192.00,224.00 C 192.00,259.349 220.651,288.00 256.00,288.00 C 291.349,288.00 320.00,259.349 320.00,224.00 C 320.00,188.651 291.349,160.00 256.00,160.00 C 220.651,160.00 192.00,188.651 192.00,224.00 Z" data-tags="finance-cash" />
<glyph unicode="&#x23;" d="M 32.00,352.00 L 480.00,352.00 L 480.00,96.00 L 32.00,96.00 L 32.00,352.00 ZM 0.00,384.00 L 0.00,64.00 L 512.00,64.00 L 512.00,384.00 L 0.00,384.00 ZM 64.00,256.00L 384.00,256.00L 384.00,193.995L 64.00,193.995zM 64.00,320.00L 125.003,320.00L 125.003,288.00L 64.00,288.00zM 384.00,320.00L 445.003,320.00L 445.003,288.00L 384.00,288.00zM 416.00,256.00L 445.003,256.00L 445.003,224.00L 416.00,224.00zM 290.005,160.00L 445.003,160.00L 445.003,128.00L 290.005,128.00zM 66.005,160.00L 224.00,160.00L 224.00,128.00L 66.005,128.00z" data-tags="finance-check" />
<glyph unicode="&#x24;" d="M 0.00,384.00 L 0.00,64.00 L 512.00,64.00 L 512.00,384.00 L 0.00,384.00 ZM 480.00,256.00 L 480.00,96.00 L 32.00,96.00 L 32.00,256.00 L 64.00,256.00 L 64.00,288.00 L 96.00,288.00 L 96.00,320.00 L 32.00,320.00 L 32.00,352.00 L 480.00,352.00 L 480.00,320.00 L 160.00,320.00 L 160.00,288.00 L 128.00,288.00 L 128.00,256.00 L 480.00,256.00 ZM 64.00,224.00L 384.00,224.00L 384.00,192.00L 64.00,192.00zM 64.00,160.00L 224.00,160.00L 224.00,128.00L 64.00,128.00z" data-tags="finance-creditcard" />
<glyph unicode="&#x25;" d="M 270.005,65.995 L 270.005,129.995 L 339.925,129.995 L 339.925,157.995 L 270.005,157.995 L 270.005,193.995 L 339.925,193.995 L 339.925,221.995 L 281.653,221.995 L 361.888,381.995 L 320.651,381.995 L 272.245,274.261 C 265.952,256.309 261.568,239.947 258.197,225.173 L 257.184,225.173 C 253.131,241.003 249.088,255.253 243.691,273.195 L 197.621,381.995 L 155.488,381.995 L 230.795,221.995 L 172.523,221.995 L 172.523,193.995 L 242.005,193.995 L 242.005,157.995 L 172.523,157.995 L 172.523,129.995 L 242.005,129.995 L 242.005,65.995 L 270.005,65.995 L 270.005,65.995 Z" data-tags="finance-yen" />
<glyph unicode="&#x26;" d="M 139.989,4.533 C 152.832-6.293 168.149,5.675 183.883,5.675 C 230.507,26.613 287.019,4.533 331.787,4.533 C 360.256,4.533 386.389,11.328 416.00,44.736 L 380.789,114.709 C 368.651,97.483 358.848,88.875 339.253,88.875 C 319.061,74.997 276.885,86.965 243.339,86.965 C 227.381,99.787 214.56,96.917 204.939,88.875 L 204.021,90.027 C 226.923,111.84 235.669,135.936 235.669,160.043 C 235.669,168.075 234.709,176.107 232.416,184.096 L 314.272,184.096 L 314.272,223.456 L 225.163,223.456 C 212.181,240.597 194.613,280.331 194.613,302.144 C 194.613,342.656 222.869,363.648 261.056,363.648 C 307.637,363.648 324.309,323.957 322.912,282.667 L 399.893,282.667 C 402.773,398.784 352.32,448.00 251.125,448.00 C 172.704,448.00 117.632,410.496 117.632,311.499 C 117.632,279.552 125.909,247.605 135.435,223.456 L 103.829,223.456 L 103.829,184.096 L 151.211,184.096 C 156.384,173.237 158.688,158.891 158.688,146.837 C 158.688,111.264 123.605,79.851 96.00,62.293 L 139.989,4.533 L 139.989,4.533 Z" data-tags="finance-pounds" />
<glyph unicode="&#x27;" d="M 384.576,350.827 C 372.469,362.485 347.371,380.864 297.173,380.864 C 255.925,380.864 229.493,367.413 212.853,347.243 C 202.784,334.699 195.424,318.293 190.005,296.864 C 186.517,282.773 183.808,268.693 182.261,253.995 L 152.00,253.995 L 134.069,225.995 L 178.005,225.995 C 177.547,212.363 178.005,202.539 178.773,189.995 L 152.00,189.995 L 134.069,161.995 L 183.808,161.995 C 185.355,154.347 187.68,146.709 190.389,139.477 C 196.203,124.96 204.331,109.269 215.563,97.173 C 236.853,73.867 266.688,67.136 294.923,67.136 C 342.443,67.136 369.333,85.067 380.096,93.141 L 380.096,163.243 C 363.509,140.277 336.171,125.408 301.653,125.408 C 295.819,125.408 251.893,125.813 245.173,161.995 L 300.757,161.995 L 318.688,189.995 L 238.891,189.995 C 237.632,202.539 237.237,212.363 238.005,225.995 L 331.232,225.995 L 349.163,253.995 L 242.933,253.995 C 246.965,291.349 267.136,322.592 298.955,322.592 C 320.928,322.592 343.787,310.944 358.133,283.392 L 384.576,350.827 L 384.576,350.827 Z" data-tags="finance-euro" />
<glyph unicode="&#x28;" d="M 286.005,193.995 C 307.595,186.421 322.005,177.429 322.005,158.955 C 322.005,136.224 302.677,127.701 286.005,126.272 L 286.005,193.995 L 286.005,193.995 ZM 258.005,269.515 C 236.651,275.232 222.005,282.176 222.005,295.232 C 222.005,315.232 241.664,321.365 258.005,321.728 L 258.005,269.515 L 258.005,269.515 ZM 286.005,422.069 L 258.005,422.069 L 258.005,381.728 C 207.829,379.616 162.005,353.803 162.005,290.336 C 162.005,236.864 196.533,218.08 231.627,206.251 C 241.248,203.797 250.453,201.344 258.005,199.307 L 258.005,125.835 C 217.973,131.787 192.544,145.419 190.005,179.253 L 130.005,179.253 C 130.325,96.523 173.568,63.605 258.005,61.259 L 258.005,20.907 L 286.005,20.907 L 286.005,61.259 C 338.464,64.075 382.005,93.227 382.005,171.755 C 382.005,225.696 348.469,245.451 314.037,257.387 C 304.565,260.277 294.72,262.741 286.005,265.205 L 286.005,319.755 C 306.997,315.797 322.645,305.931 322.005,285.781 L 382.005,285.781 C 381.707,347.008 341.685,374.656 286.005,377.781 L 286.005,422.069 L 286.005,422.069 Z" data-tags="finance-dollar" />
<glyph unicode="&#x29;" d="M 296.96,432.00 L 296.96,395.435 C 329.419,392.597 383.563,368.213 384.00,314.24 L 302.773,314.24 C 303.648,332.00 300.352,340.704 296.96,344.192 L 296.96,286.667 L 301.504,276.213 C 338.581,260.245 384.00,233.824 384.00,163.957 C 384.00,86.496 325.045,57.739 296.96,54.955 L 296.96,16.00 L 258.731,16.00 L 258.731,54.955 C 186.955,57.269 128.437,89.739 128.00,171.339 L 209.227,171.339 C 211.072,137.984 229.579,124.533 258.731,108.651 L 258.731,198.251 L 222.453,207.147 C 174.731,222.325 128.00,246.40 128.00,314.955 C 128.00,375.403 190.005,391.712 258.731,393.045 L 258.731,432.00 L 296.96,432.00 ZM 0.00,224.00 C 0.00,82.613 114.613-32.00 256.00-32.00 C 397.387-32.00 512.00,82.613 512.00,224.00 C 512.00,365.387 397.387,480.00 256.00,480.00 C 114.613,480.00 0.00,365.387 0.00,224.00 ZM 296.96,191.445 L 296.96,108.939 C 299.659,110.667 302.773,121.045 302.773,148.736 C 302.773,171.232 300.459,182.197 296.96,191.445 ZM 258.731,288.267 L 258.731,355.157 C 236.267,354.731 209.227,346.88 209.227,321.237 C 209.227,304.491 229.365,295.595 258.731,288.267 Z" data-tags="circle-dollar" />
<glyph unicode="&#x2a;" d="M 176.00,304.00 C 176.00,348.181 211.819,384.00 256.00,384.00 C 300.181,384.00 336.00,348.181 336.00,304.00 C 336.00,290.368 332.619,277.536 326.603,266.304 L 316.00,224.00 L 276.00,184.00 L 237.248,184.00 L 197.248,224.00 L 186.603,264.203 C 179.883,275.915 176.00,289.525 176.00,304.00 ZM 0.00,224.00 C 0.00,82.613 114.613-32.00 256.00-32.00 C 397.387-32.00 512.00,82.613 512.00,224.00 C 512.00,365.387 397.387,480.00 256.00,480.00 C 114.613,480.00 0.00,365.387 0.00,224.00 ZM 416.00,64.00 L 96.00,64.00 L 96.00,104.395 L 96.587,105.141 C 126.709,140.139 186.795,164.00 256.00,164.00 C 325.664,164.00 386.08,139.776 416.00,104.395 L 416.00,64.00 Z" data-tags="circle-user" />
<glyph unicode="&#x2b;" d="M 32.00,384.00 L 480.00,384.00 L 480.00,160.00 L 32.00,160.00 L 32.00,384.00 ZM 0.00,416.00 L 0.00,128.00 L 192.00,128.00 L 192.00,64.00 L 128.00,64.00 L 128.00,32.00 L 384.00,32.00 L 384.00,64.00 L 320.00,64.00 L 320.00,128.00 L 512.00,128.00 L 512.00,416.00 L 0.00,416.00 Z" data-tags="media-monitor" />
<glyph unicode="&#x2c;" d="M 64.00,352.00 L 448.00,352.00 L 448.00,128.00 L 64.00,128.00 L 64.00,352.00 ZM 32.00,384.00 L 32.00,96.00 L 480.00,96.00 L 480.00,384.00 L 32.00,384.00 ZM 0.00,96.00 L 0.00,32.00 L 192.00,32.00 L 192.00,64.00 L 320.00,64.00 L 320.00,32.00 L 512.00,32.00 L 512.00,96.00 L 0.00,96.00 Z" data-tags="media-laptop" />
<glyph unicode="&#x2d;" d="M 464.00,301.771 C 464.00,338.357 449.461,368.672 424.373,391.68 C 428.875,405.227 436.533,437.141 420.437,463.957 C 420.437,463.957 380.299,466.347 336.853,434.56 C 314.592,439.712 290.219,442.379 264.352,442.379 C 235.243,442.379 208.021,439.392 183.595,433.397 C 139.541,466.421 98.411,463.957 98.411,463.957 C 79.541,432.533 93.312,394.08 96.384,386.443 C 76.192,364.693 64.693,336.523 64.693,301.771 C 64.693,207.861 123.712,171.051 209.28,161.312 C 198.027,155.744 191.872,143.819 188.629,129.227 C 171.413,114.955 121.739,114.688 108.80,140.085 C 90.293,176.341 48.00,180.213 48.00,170.773 C 48.00,159.979 77.045,153.909 89.013,122.72 C 95.008,104.512 120.416,83.947 141.291,83.947 C 155.019,83.947 171.093,82.123 185.355,87.776 C 185.611,62.304 188.32,38.101 185.365,28.949 C 178.101,6.475 160.608,13.237 160.608,1.547 C 160.608-10.592 215.701-3.616 215.701,29.429 L 215.701,105.867 C 215.701,105.867 223.936,121.152 228.533,121.152 C 228.619,121.152 228.693,121.173 228.779,121.195 L 228.779,20.885 C 228.779,3.36 213.408,2.453 213.408-13.611 C 213.408-21.60 260.725-9.461 260.725,21.568 C 260.725,39.573 260.725,88.277 260.725,123.392 L 270.88,123.392 C 270.88,88.277 270.88,39.573 270.88,21.568 C 270.88-9.461 318.197-21.60 318.197-13.611 C 318.197,2.453 302.827,3.36 302.827,20.885 L 302.827,121.205 C 302.923,121.184 303.019,121.152 303.104,121.152 C 307.701,121.152 315.893,105.867 315.893,105.867 L 315.893,29.429 C 315.893-3.616 371.029-10.592 371.029,1.547 C 371.029,13.237 353.568,6.475 346.315,28.949 C 339.829,49.024 360.608,141.419 322.965,161.035 C 406.613,169.493 464.00,201.973 464.00,301.771 Z" data-tags="git-kitty" />
<glyph unicode="&#x2e;" d="M 0.00,64.00 C 0.00,10.976 114.613-32.00 256.00-32.00 C 397.387-32.00 512.00,10.976 512.00,64.00 C 512.00,81.483 499.541,97.877 477.76,112.00 C 433.493,83.307 350.763,64.00 256.00,64.00 C 161.237,64.00 78.507,83.307 34.24,112.00 C 12.459,97.877 0.00,81.483 0.00,64.00 ZM 0.00,224.00 C 0.00,170.976 114.613,128.00 256.00,128.00 C 397.387,128.00 512.00,170.976 512.00,224.00 C 512.00,241.483 499.541,257.877 477.76,272.00 C 433.493,243.307 350.763,224.00 256.00,224.00 C 161.237,224.00 78.507,243.307 34.24,272.00 C 12.459,257.877 0.00,241.483 0.00,224.00 ZM 0.00,384.00 C 0.00,437.024 114.613,480.00 256.00,480.00 C 397.387,480.00 512.00,437.024 512.00,384.00 C 512.00,330.976 397.387,288.00 256.00,288.00 C 114.613,288.00 0.00,330.976 0.00,384.00 Z" data-tags="display-database" />
<glyph unicode="&#x2f;" d="M 512.00-32.00 L 512.00,32.64 C 464.117,89.237 367.456,128.00 256.00,128.00 C 145.269,128.00 49.141,89.813 0.939,33.813 L 0.00,32.64 L 0.00-32.00 L 512.00-32.00 ZM 128.00,352.00 C 128.00,328.853 134.208,307.061 144.96,288.32 L 162.005,224.00 L 226.005,160.00 L 288.00,160.00 L 352.00,224.00 L 368.96,291.68 C 378.581,309.653 384.00,330.187 384.00,352.00 C 384.00,422.699 326.699,480.00 256.00,480.00 C 185.301,480.00 128.00,422.699 128.00,352.00 Z" data-tags="user" />
<glyph unicode="&#x30;" d="M 512.00,96.00 L 69.813,96.00 L 64.00,96.00 L 64.00,64.00 L 512.00,64.00 L 512.00,96.00 ZM 64.00,416.00 L 69.813,96.00 L 512.00,189.995 L 512.00,416.00 L 96.00,416.00 L 96.00,448.00 L 96.00,480.00 L 0.00,480.00 L 0.00,448.00 L 32.00,448.00 L 32.00,416.00 L 64.00,416.00 ZM 96.00,0.00 C 96.00,17.675 110.325,32.00 128.00,32.00 C 145.675,32.00 160.00,17.675 160.00,0.00 C 160.00-17.675 145.675-32.00 128.00-32.00 C 110.325-32.00 96.00-17.675 96.00,0.00 ZM 416.00,0.00 C 416.00,17.675 430.325,32.00 448.00,32.00 C 465.675,32.00 480.00,17.675 480.00,0.00 C 480.00-17.675 465.675-32.00 448.00-32.00 C 430.325-32.00 416.00-17.675 416.00,0.00 Z" data-tags="cart" />
<glyph unicode="&#x31;" d="M 512.00,256.00 L 512.00,480.00 L 288.00,480.00 L 288.00,256.00 L 512.00,256.00 ZM 288.00-32.00 L 512.00-32.00 L 512.00,192.00 L 288.00,192.00 L 288.00-32.00 ZM 0.00,192.00 L 0.00-32.00 L 224.00-32.00 L 224.00,192.00 L 0.00,192.00 ZM 0.00,480.00 L 0.00,256.00 L 224.00,256.00 L 224.00,480.00 L 0.00,480.00 Z" data-tags="panes" />
<glyph unicode="&#x32;" d="M 0.00,384.00 L 158.56,225.44 C 86.187,153.941 0.00,68.00 0.00,68.00 L 128.00-32.00 L 272.64,111.36 L 416.00-32.00 L 514.005,93.003 L 379.52,217.76 L 382.421,220.693 C 382.421,221.568 358.72,240.811 331.84,262.08 L 97.003,480.00 L 0.00,384.00 ZM 384.00,480.00 L 513.483,352.00 L 416.00,253.995 L 288.00,384.00 L 384.00,480.00 Z" data-tags="excell" />
<glyph unicode="&#x33;" d="M 192.00,480.00 C 192.00,477.995 0.00-32.00 0.00-32.00 L 288.00-32.00 L 253.003,96.00 L 160.00,96.00 L 254.997,384.00 L 386.005-32.00 L 512.00-32.00 L 320.00,480.00 C 320.00,480.00 192.00,482.005 192.00,480.00 Z" data-tags="adobe" />
<glyph unicode="&#x34;" d="M 0.00,384.00 C 0.00,384.00 61.336,479.248 64.00,479.992 C 66.664,480.744 128.00,384.00 128.00,384.00 L 0.00,384.00 ZM 128.00,48.00 C 128.00,48.00 66.664-31.368 64.00-32.00 C 61.336-32.624 0.00,48.00 0.00,48.00 L 128.00,48.00 ZM 48.00,416.00L 80.00,416.00L 80.00,16.00L 48.00,16.00zM 192.00,448.00L 512.00,448.00L 512.00,416.00L 192.00,416.00zM 192.00,336.00L 512.00,336.00L 512.00,304.00L 192.00,304.00zM 192.00,240.00L 512.00,240.00L 512.00,208.00L 192.00,208.00zM 192.00,128.00L 512.00,128.00L 512.00,96.00L 192.00,96.00zM 192.00,32.00L 512.00,32.00L 512.00,0.00L 192.00,0.00z" data-tags="text-style-increase-lineheight" />
<glyph unicode="&#x35;" d="M 0.00,384.00 C 0.00,384.00 61.336,479.248 64.00,479.992 C 66.664,480.744 128.00,384.00 128.00,384.00 L 0.00,384.00 ZM 128.00,48.00 C 128.00,48.00 66.664-31.368 64.00-32.00 C 61.336-32.624 0.00,48.00 0.00,48.00 L 128.00,48.00 ZM 48.00,416.00L 80.00,416.00L 80.00,16.00L 48.00,16.00zM 192.00,368.00L 512.00,368.00L 512.00,336.00L 192.00,336.00zM 192.00,304.00L 512.00,304.00L 512.00,272.00L 192.00,272.00zM 192.00,240.00L 512.00,240.00L 512.00,208.00L 192.00,208.00zM 192.00,176.00L 512.00,176.00L 512.00,144.00L 192.00,144.00zM 192.00,112.00L 512.00,112.00L 512.00,80.00L 192.00,80.00z" data-tags="text-style-decrease-lineheight" />
<glyph unicode="&#x36;" d="M 399.00,455.00 L 321.00,455.00 L 321.00,239.296 C 321.00,193.136 303.328,169.56 256.00,169.56 C 208.68,169.56 191.00,193.136 191.00,239.296 L 191.00,455.00 L 113.00,455.00 L 113.00,244.816 C 113.00,147.464 152.848,107.56 256.00,107.56 C 359.168,107.56 399.00,147.464 399.00,244.816 L 399.00,455.00 L 399.00,455.00 ZM 80.00,5.128 L 80.00,29.128 L 432.00,29.128 L 432.00,5.128 L 80.00,5.128 L 80.00,5.128 Z" data-tags="text-style-underline" />
<glyph unicode="&#x37;" d="M 397.232,396.44 L 114.76,396.44 L 114.76,334.44 L 217.00,334.44 L 217.00,49.00 L 295.00,49.00 L 295.00,334.44 L 397.232,334.44 L 397.232,396.44 L 397.232,396.44 Z" data-tags="text-style-normal" />
<glyph unicode="&#x38;" d="M 190.416,49.00 L 272.008,49.00 L 316.84,303.00 L 235.248,303.00 L 190.416,49.00 L 190.416,49.00 ZM 333.928,399.80 L 252.328,399.80 L 241.392,337.80 L 322.984,337.80 L 333.928,399.80 L 333.928,399.80 Z" data-tags="text-style-italic" />
<glyph unicode="&#x39;" d="M 225.856,178.496 L 297.368,178.496 C 324.248,178.496 343.536,168.136 338.048,137.04 C 332.912,107.92 311.40,97.56 283.08,97.56 L 211.568,97.56 L 225.856,178.496 L 225.856,178.496 ZM 111.344,35.56 L 275.984,35.56 C 349.416,35.56 413.232,57.20 426.72,133.584 C 433.776,173.568 416.944,206.032 382.376,216.848 C 411.68,230.616 435.104,259.952 441.776,297.76 C 454.088,367.528 391.736,381.40 332.536,380.44 L 172.216,380.44 L 111.344,35.56 L 111.344,35.56 ZM 250.552,318.44 L 319.672,318.44 C 338.392,318.44 354.376,308.40 348.952,277.672 C 343.632,247.544 320.744,237.496 305.384,237.496 L 236.264,237.496 L 250.552,318.44 L 250.552,318.44 Z" data-tags="text-style-bold-italic" />
<glyph unicode="&#x3a;" d="M 191.00,178.496 L 268.776,178.496 C 298.008,178.496 321.00,168.152 321.00,137.048 C 321.00,107.928 299.568,97.56 268.776,97.56 L 191.00,97.56 L 191.00,178.496 L 191.00,178.496 ZM 113.00,35.56 L 272.952,35.56 C 346.584,35.56 399.00,57.192 399.00,133.592 C 399.00,173.584 379.304,206.032 347.424,216.856 C 367.072,230.616 383.00,259.952 383.00,297.76 C 383.00,367.536 326.392,381.40 267.672,380.44 L 113.00,380.44 L 113.00,35.56 L 113.00,35.56 ZM 191.00,318.44 L 265.60,318.44 C 285.808,318.44 305.00,308.40 305.00,277.672 C 305.00,247.544 282.176,237.496 265.60,237.496 L 191.00,237.496 L 191.00,318.44 L 191.00,318.44 Z" data-tags="text-style-bold" />
<glyph unicode="&#x3b;" d="M 96.00,448.00 L 192.00,336.00 L 224.504,367.496 L 128.00,480.00 L 96.00,448.00 ZM 368.00,160.00 L 464.00,48.00 L 496.00,80.00 L 400.00,192.00 L 368.00,160.00 ZM 64.00,431.496 L 160.00,320.00 C 160.00,320.00 124.00,294.00 144.00,272.00 C 164.00,250.00 304.00,112.00 304.00,112.00 C 304.00,112.00 326.00,98.496 336.00,128.00 L 432.504,31.496 C 432.504,31.496 396.00-8.504 352.00-16.504 C 308.00-24.504 63.504,89.496 15.504,335.496 C 15.504,385.496 64.00,431.496 64.00,431.496 Z" data-tags="newphone" />
<glyph unicode="&#x3c;" d="M 256.00,384.00 L 480.00,384.00 L 480.00,448.00 L 256.00,448.00 L 256.00,384.00 ZM 32.00,448.00 L 32.00,384.00 L 64.00,384.00 L 64.00,448.00 L 32.00,448.00 ZM 256.00,0.00 L 480.00,0.00 L 480.00,64.00 L 256.00,64.00 L 256.00,0.00 ZM 32.00,64.00 L 32.00,0.00 L 64.00,0.00 L 64.00,64.00 L 32.00,64.00 ZM 416.00,192.00 L 480.00,192.00 L 480.00,256.00 L 416.00,256.00 L 416.00,192.00 ZM 32.00,256.00 L 32.00,192.00 L 224.00,192.00 L 224.00,256.00 L 32.00,256.00 ZM 96.00,480.00L 224.00,480.00L 224.00,352.00L 96.00,352.00zM 96.00,96.00L 224.00,96.00L 224.00-32.00L 96.00-32.00zM 256.00,288.00L 384.00,288.00L 384.00,160.00L 256.00,160.00z" data-tags="display-sliders" />
<glyph unicode="&#x3d;" d="M 142.40,256.00 C 172.629,304.597 226.56,336.939 288.00,336.939 C 382.603,336.939 459.296,260.256 459.296,165.653 C 459.296,71.04 382.603-5.643 288.00-5.643 C 277.067-5.643 266.368-4.683 256.00-2.72 L 256.00-26.40 C 266.443-29.995 277.12-32.00 288.00-32.00 C 411.712-32.00 512.00,68.288 512.00,192.00 C 512.00,315.712 411.712,416.00 288.00,416.00 C 186.528,416.00 100.811,348.523 73.28,256.00 L 0.00,256.00 L 128.00,128.501 L 255.499,256.00 L 142.40,256.00 ZM 288.00,256.00 L 288.00,160.00 L 288.00,128.00 L 320.00,128.00 L 384.00,128.00 L 384.00,160.00 L 320.00,160.00 L 320.00,256.00 L 288.00,256.00 Z" data-tags="history-undo" />
<glyph unicode="&#x3e;" d="M 32.00,320.00 L 256.00,320.00 L 256.00,160.00 L 32.00,160.00 L 32.00,320.00 ZM 0.00,350.997 L 0.00,128.00 L 285.003,128.00 L 285.003,350.997 L 0.00,350.997 ZM 352.00,288.00 C 352.00,288.00 481.003,289.003 480.00,288.00 C 478.997,286.997 416.00,192.00 416.00,192.00 L 352.00,288.00 ZM 320.00,352.00 L 320.00,128.00 L 512.00,128.00 L 512.00,352.00 L 320.00,352.00 Z" data-tags="display-dropdown" />
<glyph unicode="&#x3f;" d="M0.00,320.00L 160.00,320.00L 160.00,224.00L0.00,224.00zM0.00,224.00L 512.00,224.00L 512.00,128.00L0.00,128.00zM 194.997,320.00L 320.00,320.00L 320.00,256.00L 194.997,256.00zM 352.00,320.00L 480.00,320.00L 480.00,256.00L 352.00,256.00z" data-tags="display-tabs16" />
<glyph unicode="&#x40;" d="M 96.00,192.00L 411.893,192.00L 411.893,128.00L 96.00,128.00zM 160.00,320.00L 416.00,320.00L 416.00,256.00L 160.00,256.00zM 32.00,448.00L 416.00,448.00L 416.00,384.00L 32.00,384.00zM 32.00,64.00L 416.00,64.00L 416.00,0.00L 32.00,0.00zM 448.00,448.00L 480.00,448.00L 480.00,0.00L 448.00,0.00z" data-tags="text-justify-ragged-right" />
<glyph unicode="&#x41;" d="M 100.107,192.00L 416.00,192.00L 416.00,128.00L 100.107,128.00zM 96.00,320.00L 352.00,320.00L 352.00,256.00L 96.00,256.00zM 96.00,448.00L 480.00,448.00L 480.00,384.00L 96.00,384.00zM 96.00,64.00L 480.00,64.00L 480.00,0.00L 96.00,0.00zM 32.00,448.00L 64.00,448.00L 64.00,0.00L 32.00,0.00z" data-tags="text-justify-ragged-left" />
<glyph unicode="&#x42;" d="M 224.00,192.00L 480.00,192.00L 480.00,128.00L 224.00,128.00zM 224.00,320.00L 480.00,320.00L 480.00,256.00L 224.00,256.00zM 32.00,448.00L 480.00,448.00L 480.00,384.00L 32.00,384.00zM 32.00,64.00L 480.00,64.00L 480.00,0.00L 32.00,0.00zM 192.00,224.00 L 32.00,320.00 L 32.00,128.00 L 192.00,224.00 Z" data-tags="text-increase-indent" />
<glyph unicode="&#x43;" d="M 224.00,192.00L 480.00,192.00L 480.00,128.00L 224.00,128.00zM 224.00,320.00L 480.00,320.00L 480.00,256.00L 224.00,256.00zM 32.00,448.00L 480.00,448.00L 480.00,384.00L 32.00,384.00zM 32.00,64.00L 480.00,64.00L 480.00,0.00L 32.00,0.00zM 32.00,224.00 L 192.00,320.00 L 192.00,128.00 L 32.00,224.00 Z" data-tags="text-decreseindent" />
<glyph unicode="&#x44;" d="M 256.00,448.00L 480.00,448.00L 480.00,384.00L 256.00,384.00zM 129.003,320.00L 480.00,320.00L 480.00,256.00L 129.003,256.00zM 32.00,192.00L 480.00,192.00L 480.00,128.00L 32.00,128.00zM 32.00,64.00L 480.00,64.00L 480.00,0.00L 32.00,0.00z" data-tags="text-align-right" />
<glyph unicode="&#x45;" d="M 32.00,448.00L 256.00,448.00L 256.00,384.00L 32.00,384.00zM 32.00,320.00L 382.997,320.00L 382.997,256.00L 32.00,256.00zM 32.00,192.00L 480.00,192.00L 480.00,128.00L 32.00,128.00zM 32.00,64.00L 480.00,64.00L 480.00,0.00L 32.00,0.00z" data-tags="text-align-left" />
<glyph unicode="&#x46;" d="M 32.00,448.00L 480.00,448.00L 480.00,384.00L 32.00,384.00zM 32.00,320.00L 480.00,320.00L 480.00,256.00L 32.00,256.00zM 32.00,192.00L 480.00,192.00L 480.00,128.00L 32.00,128.00zM 32.00,64.00L 480.00,64.00L 480.00,0.00L 32.00,0.00z" data-tags="text-align-center" />
<glyph unicode="&#x47;" d="M 160.00,448.00L 480.00,448.00L 480.00,352.00L 160.00,352.00zM 192.00,256.00 L 448.00,256.00 L 448.00,224.00 L 192.00,224.00 L 192.00,256.00 ZM 160.00,288.00 L 160.00,192.00 L 480.00,192.00 L 480.00,288.00 L 160.00,288.00 ZM 160.00,128.00L 480.00,128.00L 480.00,32.00L 160.00,32.00zM 32.00,448.00L 128.00,448.00L 128.00,352.00L 32.00,352.00zM 64.00,256.00 L 96.00,256.00 L 96.00,224.00 L 64.00,224.00 L 64.00,256.00 ZM 32.00,288.00 L 32.00,192.00 L 128.00,192.00 L 128.00,288.00 L 32.00,288.00 ZM 32.00,128.00L 128.00,128.00L 128.00,32.00L 32.00,32.00z" data-tags="selected-grid" />
<glyph unicode="&#x48;" d="M 64.00,416.00 L 448.00,416.00 L 448.00,32.00 L 64.00,32.00 L 64.00,416.00 ZM 0.00,480.00 L 0.00-32.00 L 512.00-32.00 L 512.00,480.00 L 0.00,480.00 ZM 128.00,256.00L 384.00,256.00L 384.00,192.00L 128.00,192.00z" data-tags="selected" />
<glyph unicode="&#x49;" d="M 160.00,448.00L 480.00,448.00L 480.00,352.00L 160.00,352.00zM 160.00,288.00L 480.00,288.00L 480.00,192.00L 160.00,192.00zM 160.00,128.00L 480.00,128.00L 480.00,32.00L 160.00,32.00zM 32.00,448.00L 128.00,448.00L 128.00,352.00L 32.00,352.00zM 32.00,288.00L 128.00,288.00L 128.00,192.00L 32.00,192.00zM 32.00,128.00L 128.00,128.00L 128.00,32.00L 32.00,32.00z" data-tags="none-selected-grid" />
<glyph unicode="&#x4a;" d="M 64.00,416.00 L 448.00,416.00 L 448.00,32.00 L 64.00,32.00 L 64.00,416.00 ZM 0.00,480.00 L 0.00-32.00 L 512.00-32.00 L 512.00,480.00 L 0.00,480.00 Z" data-tags="none-selected" />
<glyph unicode="&#x4b;" d="M 480.00,192.00 L 224.00,192.00 L 224.00,128.00 L 480.00,128.00 L 480.00,192.00 ZM 480.00,64.00 L 224.00,64.00 L 224.00,0.00 L 480.00,0.00 L 480.00,64.00 ZM 224.00,320.00L 480.00,320.00L 480.00,256.00L 224.00,256.00zM 224.00,448.00L 480.00,448.00L 480.00,384.00L 224.00,384.00zM 64.00,416.00 C 64.00,433.675 78.325,448.00 96.00,448.00 C 113.675,448.00 128.00,433.675 128.00,416.00 C 128.00,398.325 113.675,384.00 96.00,384.00 C 78.325,384.00 64.00,398.325 64.00,416.00 ZM 64.00,288.00 C 64.00,305.675 78.325,320.00 96.00,320.00 C 113.675,320.00 128.00,305.675 128.00,288.00 C 128.00,270.325 113.675,256.00 96.00,256.00 C 78.325,256.00 64.00,270.325 64.00,288.00 ZM 64.00,160.00 C 64.00,177.675 78.325,192.00 96.00,192.00 C 113.675,192.00 128.00,177.675 128.00,160.00 C 128.00,142.325 113.675,128.00 96.00,128.00 C 78.325,128.00 64.00,142.325 64.00,160.00 ZM 64.00,32.00 C 64.00,49.675 78.325,64.00 96.00,64.00 C 113.675,64.00 128.00,49.675 128.00,32.00 C 128.00,14.325 113.675,0.00 96.00,0.00 C 78.325,0.00 64.00,14.325 64.00,32.00 Z" data-tags="list" />
<glyph unicode="&#x4c;" d="M0.00,448.00L 64.00,448.00L 64.00,384.00L0.00,384.00zM0.00,128.00L 64.00,128.00L 64.00,64.00L0.00,64.00zM0.00,32.00L 64.00,32.00L 64.00-32.00L0.00-32.00zM 96.00,448.00L 512.00,448.00L 512.00,384.00L 96.00,384.00zM 96.00,128.00L 512.00,128.00L 512.00,64.00L 96.00,64.00zM 96.00,32.00L 512.00,32.00L 512.00-32.00L 96.00-32.00zM 64.00,288.00 L 64.00,224.00 L 224.00,224.00 L 224.00,160.811 L 352.00,256.00 L 224.00,352.00 L 224.00,288.00 L 64.00,288.00 Z" data-tags="grid-insertrow-below" />
<glyph unicode="&#x4d;" d="M0.00,224.00L 64.00,224.00L 64.00,160.00L0.00,160.00zM 96.00,224.00L 512.00,224.00L 512.00,160.00L 96.00,160.00zM0.00,128.00L 64.00,128.00L 64.00,64.00L0.00,64.00zM0.00,32.00L 64.00,32.00L 64.00-32.00L0.00-32.00zM 96.00,128.00L 512.00,128.00L 512.00,64.00L 96.00,64.00zM 96.00,32.00L 512.00,32.00L 512.00-32.00L 96.00-32.00zM 64.00,384.00 L 64.00,320.00 L 224.00,320.00 L 224.00,256.811 L 352.00,352.00 L 224.00,448.00 L 224.00,384.00 L 64.00,384.00 Z" data-tags="grid-insertrow-above" />
<glyph unicode="&#x4e;" d="M 192.00,256.00 L 448.00,256.00 L 448.00,224.00 L 192.00,224.00 L 192.00,256.00 ZM 160.00,288.00 L 160.00,192.00 L 480.00,192.00 L 480.00,288.00 L 160.00,288.00 ZM 192.00,96.00 L 448.00,96.00 L 448.00,64.00 L 192.00,64.00 L 192.00,96.00 ZM 160.00,128.00 L 160.00,32.00 L 480.00,32.00 L 480.00,128.00 L 160.00,128.00 ZM 192.00,416.00 L 448.00,416.00 L 448.00,384.00 L 192.00,384.00 L 192.00,416.00 ZM 160.00,448.00 L 160.00,352.00 L 480.00,352.00 L 480.00,448.00 L 160.00,448.00 ZM 64.00,256.00 L 96.00,256.00 L 96.00,224.00 L 64.00,224.00 L 64.00,256.00 ZM 32.00,288.00 L 32.00,192.00 L 128.00,192.00 L 128.00,288.00 L 32.00,288.00 ZM 64.00,96.00 L 96.00,96.00 L 96.00,64.00 L 64.00,64.00 L 64.00,96.00 ZM 32.00,128.00 L 32.00,32.00 L 128.00,32.00 L 128.00,128.00 L 32.00,128.00 ZM 64.00,416.00 L 96.00,416.00 L 96.00,384.00 L 64.00,384.00 L 64.00,416.00 ZM 32.00,448.00 L 32.00,352.00 L 128.00,352.00 L 128.00,448.00 L 32.00,448.00 Z" data-tags="all-selected-grid" />
<glyph unicode="&#x4f;" d="M 221.28,32.00 L 64.00,32.00 L 64.00,192.00 L 221.28,32.00 ZM 448.00,349.92 L 448.00,32.00 L 251.68,32.00 L 448.00,349.92 ZM 64.00,416.00 L 448.00,416.00 L 448.00,353.28 L 384.00,414.443 L 228.00,154.069 L 128.00,254.464 L 64.00,192.00 L 64.00,416.00 ZM 0.00,480.00 L 0.00-32.00 L 512.00-32.00 L 512.00,480.00 L 0.00,480.00 Z" data-tags="all-selected" />
<glyph unicode="&#x50;" d="M 304.00,328.00 L 352.00,328.00 L 352.00,184.00 L 304.00,184.00 L 304.00,328.00 ZM 224.00,136.00 C 224.00,153.674 238.326,168.00 256.00,168.00 C 273.674,168.00 288.00,153.674 288.00,136.00 C 288.00,118.326 273.674,104.00 256.00,104.00 C 238.326,104.00 224.00,118.326 224.00,136.00 ZM 56.00,232.00 C 56.00,166.576 87.434,108.49 136.00,72.00 L 376.00,72.00 C 424.566,108.49 456.00,166.576 456.00,232.00 C 456.00,288.552 432.533,339.622 394.80,376.00 L 117.20,376.00 C 79.467,339.622 56.00,288.552 56.00,232.00 ZM 160.00,328.00 L 208.00,328.00 L 208.00,184.00 L 160.00,184.00 L 160.00,328.00 Z" data-tags="ui-icon-electric-plug" />
<glyph unicode="&#x51;" d="M 329.142,114.286 L 182.858,114.286 L 182.858,224.00 L 329.142,224.00 L 329.142,114.286 ZM 400.214,236.858 C 379.00,288.91 322.786,326.464 256.00,326.464 C 189.214,326.464 133.00,288.91 111.786,236.858 L 36.571,224.00 L 0.00-32.00 L 512.00-32.00 L 475.429,224.00 L 400.214,236.858 ZM 0.00,480.00 L 0.00,326.394 L 102.394,326.394 L 102.394,377.606 L 153.606,377.606 L 153.606,428.786 L 358.394,428.786 L 358.394,377.606 L 409.606,377.606 L 409.606,326.394 L 512.00,326.394 L 512.00,480.00 L 0.00,480.00 Z" data-tags="ui-icon-phone-b" />
<glyph unicode="&#x52;" d="M 438.858,406.858 L 438.858,443.429 L 475.429,443.429 L 475.429,406.858 L 511.928,406.858 L 511.928,480.00 L 438.786,480.00 L 438.786,443.429 L 402.286,443.429 L 402.286,406.858 L 438.858,406.858 ZM 365.786,443.429 L 402.286,443.429 L 402.286,480.00 L 365.714,480.00 L 365.714,443.429 L 329.214,443.429 L 329.214,406.858 L 365.786,406.858 L 365.786,443.429 ZM 292.643,443.429 L 329.142,443.429 L 329.142,480.00 L 292.571,480.00 L 292.571,443.429 L 256.072,443.429 L 256.072,406.858 L 292.643,406.858 L 292.643,443.429 ZM 73.214,443.429 L 109.714,443.429 L 109.714,480.00 L 73.142,480.00 L 73.142,443.429 L 36.571,443.429 L 36.571,480.00 L 0.00,480.00 L 0.00,406.858 L 73.214,406.858 L 73.214,443.429 ZM 146.357,443.429 L 182.858,443.429 L 182.858,480.00 L 146.286,480.00 L 146.286,443.429 L 109.786,443.429 L 109.786,406.858 L 146.357,406.858 L 146.357,443.429 ZM 219.501,443.429 L 256.00,443.429 L 256.00,480.00 L 219.429,480.00 L 219.429,443.429 L 182.928,443.429 L 182.928,406.858 L 219.501,406.858 L 219.501,443.429 ZM 475.429,187.429 L 36.571,187.429 L 36.571,333.696 L 475.429,333.696 L 475.429,187.429 ZM 475.429,114.286 L 36.571,114.286 L 36.571,150.858 L 475.429,150.858 L 475.429,114.286 ZM 0.00,370.286 L 0.00-32.00 L 512.00-32.00 L 512.00,370.286 L 0.00,370.286 Z" data-tags="ui-icon-video-b" />
<glyph unicode="&#x53;" d="M 292.571,168.616 L 219.429,168.616 L 219.429,390.154 L 292.571,390.154 L 292.571,168.616 ZM 292.571,57.846 L 219.429,57.846 L 219.429,131.693 L 292.571,131.693 L 292.571,57.846 ZM 365.714,464.00 L 146.286,464.00 L 0.00,316.307 L 0.00,131.693 L 146.286-16.00 L 365.714-16.00 L 512.00,131.693 L 512.00,316.307 L 365.714,464.00 Z" data-tags="ui-icon-stop-sign" />
<glyph unicode="&#x54;" d="M 109.714,0.00 L 146.286,0.00 L 146.286,37.333 L 109.714,37.333 L 109.714,0.00 ZM 475.464,373.333 L 475.464,298.667 L 512.00,298.667 L 512.00,373.333 L 475.464,373.333 ZM 36.571,186.667 L 0.00,186.667 L 0.00,149.333 L 36.571,149.333 L 36.571,186.667 ZM 0.00,298.667 L 36.571,298.667 L 36.571,410.667 L 73.142,410.667 L 73.142,448.00 L 0.00,448.00 L 0.00,298.667 ZM 475.464,149.333 L 512.00,149.333 L 512.00,186.667 L 475.464,186.667 L 475.464,149.333 ZM 36.571,112.00 L 0.00,112.00 L 0.00,0.00 L 73.142,0.00 L 73.142,37.333 L 36.571,37.333 L 36.571,112.00 ZM 475.464,0.00 L 512.00,0.00 L 512.00,112.00 L 475.464,112.00 L 475.464,0.00 ZM 475.464,224.00 L 512.00,224.00 L 512.00,261.333 L 475.464,261.333 L 475.464,224.00 ZM 329.142,0.00 L 365.714,0.00 L 365.714,37.333 L 329.142,37.333 L 329.142,0.00 ZM 182.858,0.00 L 292.571,0.00 L 292.571,37.333 L 182.858,37.333 L 182.858,0.00 ZM 36.571,261.333 L 0.00,261.333 L 0.00,224.00 L 36.571,224.00 L 36.571,261.333 ZM 402.286,0.00 L 438.893,0.00 L 438.893,37.333 L 402.286,37.333 L 402.286,0.00 ZM 109.714,410.667 L 146.286,410.667 L 146.286,448.00 L 109.714,448.00 L 109.714,410.667 ZM 402.286,336.00 L 438.893,336.00 L 438.893,373.333 L 402.286,373.333 L 402.286,336.00 ZM 219.429,448.00 L 182.858,448.00 L 182.858,410.667 L 219.464,336.00 L 292.571,336.00 L 292.571,373.333 L 256.00,373.333 L 219.429,448.00 ZM 329.142,336.00 L 365.714,336.00 L 365.714,373.333 L 329.142,373.333 L 329.142,336.00 Z" data-tags="ui-icon-folder-ghost" />
<glyph unicode="&#x55;" d="M 475.464,336.00 L 475.464,37.333 L 36.571,37.333 L 36.571,410.667 L 182.858,410.667 L 219.464,336.00 L 475.464,336.00 ZM 256.00,373.333 L 219.429,448.00 L 0.00,448.00 L 0.00,0.00 L 512.00,0.00 L 512.00,373.333 L 256.00,373.333 Z" data-tags="ui-icon-folder-outline" />
<glyph unicode="&#x56;" d="M 257.496,382.147 C 292.184,382.147 320.299,354.006 320.299,319.288 C 320.299,284.568 292.184,256.427 257.496,256.427 C 222.806,256.427 194.691,284.568 194.691,319.288 C 194.691,354.006 222.806,382.147 257.496,382.147 ZM 256.00,448.00 C 167.635,448.00 96.00,376.301 96.00,287.858 C 96.00,199.414 200.533,43.902 256.00,0.00 C 315.454,50.886 416.00,199.414 416.00,287.858 C 416.00,376.301 344.365,448.00 256.00,448.00 Z" data-tags="ui-icon-location" />
<glyph unicode="&#x57;" d="M 440.00,120.00 L 312.00,120.00 L 310.816,345.12 L 437.808,344.00 L 248.00,472.00 L 72.00,344.00 L 184.00,344.00 L 184.784,120.00 L 72.00,120.00 L 248.00-8.00 L 440.00,120.00 Z" data-tags="ui-icon-arrowthick-2-n-s" />
<glyph unicode="&#x58;" d="M 432.00,119.568 L 344.912,207.072 L 170.656,32.00 L 96.00,106.992 L 270.256,282.064 L 184.72,368.00 L 413.584,351.056 L 432.00,119.568 Z" data-tags="ui-icon-arrowthick-1-ne" />
<glyph unicode="&#x59;" d="M 272.00,384.00 L 272.00,241.76 L 400.00,384.00 L 400.00,64.00 L 272.00,206.24 L 272.00,64.00 L 144.00,206.24 L 144.00,64.00 L 112.00,64.00 L 112.00,384.00 L 144.00,384.00 L 144.00,241.76 L 272.00,384.00 Z" data-tags="ui-icon-seek-first" />
<glyph unicode="&#x5a;" d="M 305.675,432.00 L 416.00,322.466 L 305.675,208.011 L 305.675,240.01 C 305.675,240.01 345.594,290.683 362.962,304.086 C 155.53,306.058 127.187,243.302 128.006,176.013 C 129.138,83.03 194.285,25.046 368.002,32.019 C 369.002,30.019 368.002,3.021 368.002,0.021 C 195.005-0.979 95.008,33.019 96.008,176.013 C 96.008,364.003 340.002,336.005 368.002,336.005 L 370.126,336.005 L 305.675,400.002 L 305.675,432.00 Z" data-tags="ui-icon-arrowrefresh-1-e" />
<glyph unicode="&#x5b;" d="M 480.00,158.325 L 370.466,48.00 L 256.011,158.325 L 288.01,158.325 C 288.01,158.325 338.683,118.406 352.086,101.038 C 354.058,308.47 291.302,336.813 224.013,335.994 C 131.03,334.862 73.046,269.715 80.019,95.998 C 78.019,94.998 51.021,95.998 48.021,95.998 C 47.021,268.995 81.019,368.992 224.013,367.992 C 412.003,367.992 384.005,123.998 384.005,95.998 L 384.005,93.874 L 448.002,158.325 L 480.00,158.325 Z" data-tags="ui-icon-arrowrefresh-1-s" />
<glyph unicode="&#x5c;" d="M 40.00,257.675 L 149.534,368.00 L 263.989,257.675 L 231.99,257.675 C 231.99,257.675 181.317,297.594 167.914,314.962 C 165.942,107.53 228.698,79.187 295.987,80.006 C 388.97,81.138 446.954,146.285 439.981,320.002 C 441.981,321.002 468.979,320.002 471.979,320.002 C 472.979,147.005 438.981,47.008 295.987,48.008 C 107.997,48.008 135.995,292.002 135.995,320.002 L 135.995,322.126 L 71.998,257.675 L 40.00,257.675 Z" data-tags="ui-icon-arrowrefresh-1-n" />
<glyph unicode="&#x5d;" d="M 276.928-34.192 L 509.728,212.08 L 511.088,178.944 L 312.88-31.584 L 276.928-34.192 ZM 370.832-32.704 C 370.832-32.704 509.936,114.32 510.416,114.944 C 510.88,115.568 510.736,80.576 510.736,80.576 L 405.008-31.728 L 370.832-32.704 ZM 466.176-31.552 L 510.304,15.136 L 509.648-20.56 L 499.52-32.00 L 466.176-31.552 Z" data-tags="ui-icon-gripsmall-diagonal-se" />
<glyph unicode="&#x5e;" d="M -2.00-32.00 L 482.00,480.00 L 514.00,480.00 L 32.00-32.00 L -2.00-32.00 ZM 89.568-32.976 L 512.00,416.00 L 511.04,378.864 L 125.072-31.12 L 89.568-32.976 ZM 184.352-32.416 L 511.504,313.664 L 510.512,278.32 L 218.208-32.176 L 184.352-32.416 ZM 276.928-34.192 L 509.728,212.08 L 511.088,178.944 L 312.88-31.584 L 276.928-34.192 ZM 370.832-32.704 C 370.832-32.704 509.936,114.32 510.416,114.944 C 510.88,115.568 510.736,80.576 510.736,80.576 L 405.008-31.728 L 370.832-32.704 ZM 466.176-31.552 L 510.304,15.136 L 509.648-20.56 L 499.52-32.00 L 466.176-31.552 Z" data-tags="ui-icon-grip-diagonal-se" />
<glyph unicode="&#x5f;" d="M 160.00,448.00L 224.00,448.00L 224.00,0.00L 160.00,0.00zM 288.00,448.00L 352.00,448.00L 352.00,0.00L 288.00,0.00z" data-tags="ui-icon-grip-solid-vertical" />
<glyph unicode="&#x60;" d="M 32.00,320.00L 480.00,320.00L 480.00,256.00L 32.00,256.00zM 32.00,192.00L 480.00,192.00L 480.00,128.00L 32.00,128.00z" data-tags="ui-icon-grip-solid-horizontal" />
<glyph unicode="&#x61;" d="M 160.00,448.00L 224.00,448.00L 224.00,384.00L 160.00,384.00zM 160.00,192.00L 224.00,192.00L 224.00,128.00L 160.00,128.00zM 160.00,320.00L 224.00,320.00L 224.00,256.00L 160.00,256.00zM 160.00,64.00L 224.00,64.00L 224.00,0.00L 160.00,0.00zM 288.00,448.00L 352.00,448.00L 352.00,384.00L 288.00,384.00zM 288.00,192.00L 352.00,192.00L 352.00,128.00L 288.00,128.00zM 288.00,320.00L 352.00,320.00L 352.00,256.00L 288.00,256.00zM 288.00,64.00L 352.00,64.00L 352.00,0.00L 288.00,0.00z" data-tags="ui-icon-grip-dotted-vertical" />
<glyph unicode="&#x62;" d="M 416.00,320.00L 480.00,320.00L 480.00,256.00L 416.00,256.00zM 160.00,320.00L 224.00,320.00L 224.00,256.00L 160.00,256.00zM 288.00,320.00L 352.00,320.00L 352.00,256.00L 288.00,256.00zM 32.00,320.00L 96.00,320.00L 96.00,256.00L 32.00,256.00zM 416.00,192.00L 480.00,192.00L 480.00,128.00L 416.00,128.00zM 160.00,192.00L 224.00,192.00L 224.00,128.00L 160.00,128.00zM 288.00,192.00L 352.00,192.00L 352.00,128.00L 288.00,128.00zM 32.00,192.00L 96.00,192.00L 96.00,128.00L 32.00,128.00z" data-tags="ui-icon-grip-dotted-horizontal" />
<glyph unicode="&#x63;" d="M 96.00,256.00 L 144.00,256.00 L 144.00,208.00 L 96.00,208.00 L 96.00,256.00 ZM 16.00,128.00 L 16.00,112.00 L 16.00,80.00 L 40.00,80.00 C 34.979,73.315 32.00,65.005 32.00,56.00 C 32.00,33.909 49.909,16.00 72.00,16.00 C 94.091,16.00 112.00,33.909 112.00,56.00 C 112.00,65.005 109.021,73.315 104.00,80.00 L 328.00,80.00 C 322.979,73.315 320.00,65.005 320.00,56.00 C 320.00,33.909 337.909,16.00 360.00,16.00 C 382.091,16.00 400.00,33.909 400.00,56.00 C 400.00,65.005 397.021,73.315 392.00,80.00 L 424.00,80.00 C 418.979,73.315 416.00,65.005 416.00,56.00 C 416.00,33.909 433.909,16.00 456.00,16.00 C 478.091,16.00 496.00,33.909 496.00,56.00 C 496.00,65.005 493.021,73.315 488.00,80.00 L 496.00,80.00 L 496.00,128.00 L 160.00,128.00 L 160.00,352.00 L 64.00,288.00 L 64.00,218.96 L 16.00,204.00 L 16.00,128.00 ZM 176.00,352.00 L 176.00,144.00 L 496.00,144.00 L 496.00,352.00 L 176.00,352.00 Z" data-tags="ui-icon-truck" />
<glyph unicode="&#x64;" d="M 64.00,192.00 L 96.00,224.00 L 200.00,133.84 L 304.00,224.00 L 336.00,192.00 L 238.00,100.96 L 336.00,16.00 L 288.00-16.00 L 200.00,65.68 L 112.00-16.00 L 64.00,16.00 L 162.00,100.96 L 64.00,192.00 ZM 16.00,256.00 L 16.00-32.00 L 368.00-32.00 L 368.00,256.00 L 336.00,256.00 L 336.00,272.00 L 317.501,272.00 C 321.501,297.499 335.037,343.582 398.56,336.16 C 400.00,345.499 400.00,359.00 398.501,368.00 C 345.76,365.986 307.00,348.00 288.00,272.00 L 272.00,272.00 L 272.00,256.00 L 208.00,256.00 L 208.00,320.00 L 80.00,320.00 L 80.00,256.00 L 16.00,256.00 ZM 176.00,256.00 L 112.00,256.00 L 112.00,288.00 L 176.00,288.00 L 176.00,256.00 Z" data-tags="ui-icon-gas-b" />
<glyph unicode="&#x65;" d="M 80.00,448.00 L 336.00,448.00 L 336.00,272.00 L 80.00,272.00 L 80.00,448.00 ZM 368.00,80.00 L 368.00,383.44 L 367.00,384.00 C 367.00,384.00 332.00,416.00 368.00,416.00 L 368.00,480.00 L 48.00,480.00 L 48.00,16.00 L 0.00,16.00 L 0.00-32.00 L 48.00-32.00 L 368.00-32.00 L 416.00-32.00 L 416.00,16.00 L 368.00,16.00 L 368.00,48.00 C 368.00,24.00 464.00,80.499 464.00,224.00 C 464.00,367.499 404.00,416.00 368.00,416.00 C 332.00,416.00 367.00,384.00 367.00,384.00 L 368.00,383.44 C 376.195,378.886 432.00,343.528 432.00,224.00 C 432.00,95.00 368.00,80.00 368.00,80.00 Z" data-tags="ui-icon-gas" />
<glyph unicode="&#x66;" d="M 64.00,400.00 C 64.00,417.674 146.378,432.00 248.00,432.00 C 349.622,432.00 432.00,417.674 432.00,400.00 C 432.00,382.326 349.622,368.00 248.00,368.00 C 146.378,368.00 64.00,382.326 64.00,400.00 ZM 448.00,400.00 C 448.00,426.51 358.458,448.00 248.00,448.00 C 137.542,448.00 48.00,426.51 48.00,400.00 L 48.00,48.00 C 48.00,21.49 137.542,0.00 248.00,0.00 C 358.458,0.00 448.00,21.49 448.00,48.00 L 448.00,400.00 Z" data-tags="ui-icon-barrel" />
<glyph unicode="&#x67;" d="M 64.00,224.00 C 64.00,330.04 152.832,412.299 260.085,407.83 C 364.846,403.464 448.00,317.622 448.00,216.00 C 448.00,114.378 364.846,32.00 260.085,32.00 C 152.832,32.00 64.00,117.96 64.00,224.00 ZM 16.00,224.00 C 16.00,91.45 123.45-16.00 256.00-16.00 C 388.55-16.00 496.00,91.45 496.00,224.00 C 496.00,356.55 388.55,464.00 256.00,464.00 C 123.45,464.00 16.00,356.55 16.00,224.00 ZM 352.00,280.00 C 352.00,266.746 362.746,256.00 376.00,256.00 C 389.254,256.00 400.00,266.746 400.00,280.00 C 400.00,293.254 389.254,304.00 376.00,304.00 C 362.746,304.00 352.00,293.254 352.00,280.00 ZM 288.00,344.00 C 288.00,330.746 298.746,320.00 312.00,320.00 C 325.254,320.00 336.00,330.746 336.00,344.00 C 336.00,357.254 325.254,368.00 312.00,368.00 C 298.746,368.00 288.00,357.254 288.00,344.00 ZM 176.00,344.00 C 176.00,330.746 186.746,320.00 200.00,320.00 C 213.254,320.00 224.00,330.746 224.00,344.00 C 224.00,357.254 213.254,368.00 200.00,368.00 C 186.746,368.00 176.00,357.254 176.00,344.00 ZM 112.00,280.00 C 112.00,266.746 122.746,256.00 136.00,256.00 C 149.254,256.00 160.00,266.746 160.00,280.00 C 160.00,293.254 149.254,304.00 136.00,304.00 C 122.746,304.00 112.00,293.254 112.00,280.00 ZM 216.00,184.00 C 216.00,161.909 233.909,144.00 256.00,144.00 C 278.091,144.00 296.00,161.909 296.00,184.00 C 296.00,184.00 343.00,298.00 356.00,331.00 C 335.00,306.00 256.00,223.00 256.00,224.00 C 233.909,224.00 216.00,206.091 216.00,184.00 ZM 399.12,128.00 L 301.28,128.00 C 294.691,109.357 276.899,96.00 256.00,96.00 C 235.101,96.00 217.309,109.357 210.72,128.00 L 112.88,128.00 C 142.454,79.998 195.482,48.00 256.00,48.00 C 316.518,48.00 369.546,79.998 399.12,128.00 Z" data-tags="ui-icon-dashboard" />
<glyph unicode="&#x68;" d="M 240.00,32.00 C 159.242,32.00 157.709,185.083 192.00,240.00 C 199.051,86.086 245.854,32.00 240.00,32.00 ZM 256.00-16.00 C 570.227,17.717 278.00,338.00 256.00,448.00 C 234.00,337.00 -58.666,8.33 256.00-16.00 Z" data-tags="ui-icon-drip" />
<glyph unicode="&#x69;" d="M 176.00,448.00 L 176.00,416.00 L 336.00,416.00 L 336.00,448.00 L 304.00,448.00 L 304.00,480.00 L 208.00,480.00 L 208.00,448.00 L 176.00,448.00 ZM 128.00,16.00 L 352.00,16.00 L 352.00,0.00 L 128.00,0.00 L 128.00,16.00 ZM 128.00,112.00 L 384.00,112.00 L 384.00,96.00 L 128.00,96.00 L 128.00,112.00 ZM 128.00,208.00 L 352.00,208.00 L 352.00,192.00 L 128.00,192.00 L 128.00,208.00 ZM 128.00,304.00 L 384.00,304.00 L 384.00,288.00 L 128.00,288.00 L 128.00,304.00 ZM 96.00,432.00 L 96.00-32.00 L 416.00-32.00 L 416.00,432.00 L 368.00,432.00 L 368.00,384.00 L 144.00,384.00 L 144.00,432.00 L 96.00,432.00 ZM 160.00,352.00 L 384.00,352.00 L 384.00,336.00 L 160.00,336.00 L 160.00,352.00 ZM 128.00,256.00 L 384.00,256.00 L 384.00,240.00 L 128.00,240.00 L 128.00,256.00 ZM 160.00,160.00 L 384.00,160.00 L 384.00,144.00 L 160.00,144.00 L 160.00,160.00 ZM 128.00,64.00 L 384.00,64.00 L 384.00,48.00 L 128.00,48.00 L 128.00,64.00 Z" data-tags="ui-icon-clipboard" />
<glyph unicode="&#x6a;" d="M 320.00,192.00 L 416.00,192.00 L 416.00,160.00 L 320.00,160.00 L 320.00,192.00 ZM 320.00,320.00 L 496.00,320.00 L 496.00,288.00 L 320.00,288.00 L 320.00,320.00 ZM 320.00,448.00 L 496.00,448.00 L 496.00,416.00 L 320.00,416.00 L 320.00,448.00 ZM 0.00,480.00 L 0.00,112.00 L 512.00,112.00 L 512.00,480.00 L 0.00,480.00 ZM 32.00,448.00 L 288.00,448.00 L 288.00,160.00 L 32.00,160.00 L 32.00,448.00 ZM 320.00,384.00 L 496.00,384.00 L 496.00,352.00 L 320.00,352.00 L 320.00,384.00 ZM 320.00,256.00 L 496.00,256.00 L 496.00,224.00 L 320.00,224.00 L 320.00,256.00 ZM 112.00,368.00 C 112.00,341.49 132.49,288.00 159.00,288.00 C 185.51,288.00 208.00,341.49 208.00,368.00 C 208.00,394.51 186.51,416.00 160.00,416.00 C 133.49,416.00 112.00,394.51 112.00,368.00 ZM 64.00,192.00 L 256.00,192.00 C 256.00,192.00 256.501,272.00 160.00,272.00 C 63.501,272.00 64.00,192.00 64.00,192.00 ZM 0.00,80.00 L 0.00-32.00 L 96.00-32.00 L 96.00,0.00 L 32.00,0.00 L 32.00,48.00 L 208.00,48.00 L 208.00,0.00 L 144.00,0.00 L 144.00-32.00 L 368.00-32.00 L 368.00,0.00 L 304.00,0.00 L 304.00,48.00 L 480.00,48.00 L 480.00,0.00 L 416.00,0.00 L 416.00-32.00 L 512.00-32.00 L 512.00,80.00 L 0.00,80.00 Z" data-tags="ui-icon-contact" />
<glyph unicode="&#x6b;" d="M 56.00,224.00 C 56.00,170.979 98.979,128.00 152.00,128.00 L 192.00,128.00 L 192.00,208.00 L 128.00,208.00 L 256.00,322.00 L 384.00,208.00 L 320.00,208.00 L 320.00,128.00 L 344.00,128.00 L 344.00,129.36 C 349.203,128.486 354.549,128.00 360.00,128.00 C 413.021,128.00 456.00,170.979 456.00,224.00 C 456.00,277.021 413.021,320.00 360.00,320.00 C 360.00,373.021 317.021,416.00 264.00,416.00 C 210.979,416.00 168.00,373.021 168.00,320.00 L 168.00,318.64 C 162.794,319.514 157.454,320.00 152.00,320.00 C 98.979,320.00 56.00,277.021 56.00,224.00 Z" data-tags="ui-icon-cloud-upload" />
<glyph unicode="&#x6c;" d="M 192.00,272.00 L 192.00,96.00 L 144.00,96.00 L 256.00,0.00 L 368.00,96.00 L 320.00,96.00 L 320.00,272.00 L 192.00,272.00 ZM 152.00,160.00 L 160.00,160.00 L 160.00,272.00 L 160.00,304.00 L 352.00,304.00 L 352.00,272.00 L 352.00,160.32 C 354.638,160.094 357.306,160.00 360.00,160.00 C 413.021,160.00 456.00,202.979 456.00,256.00 C 456.00,309.021 413.021,352.00 360.00,352.00 C 360.00,405.021 317.021,448.00 264.00,448.00 C 210.979,448.00 168.00,405.021 168.00,352.00 L 168.00,350.64 C 162.794,351.514 157.454,352.00 152.00,352.00 C 98.979,352.00 56.00,309.021 56.00,256.00 C 56.00,202.979 98.979,160.00 152.00,160.00 Z" data-tags="ui-icon-cloud-download" />
<glyph unicode="&#x6d;" d="M 56.00,176.00 C 56.00,122.979 98.979,80.00 152.00,80.00 L 344.00,80.00 L 344.00,81.36 C 349.203,80.486 354.549,80.00 360.00,80.00 C 413.021,80.00 456.00,122.979 456.00,176.00 C 456.00,229.021 413.021,272.00 360.00,272.00 C 360.00,325.021 317.021,368.00 264.00,368.00 C 210.979,368.00 168.00,325.021 168.00,272.00 L 168.00,270.64 C 162.794,271.514 157.454,272.00 152.00,272.00 C 98.979,272.00 56.00,229.021 56.00,176.00 Z" data-tags="ui-icon-cloud" />
<glyph unicode="&#x6e;" d="M 160.00,224.00 C 160.00,277.021 202.979,320.00 256.00,320.00 C 309.021,320.00 352.00,277.021 352.00,224.00 C 352.00,170.979 309.021,128.00 256.00,128.00 C 202.979,128.00 160.00,170.979 160.00,224.00 ZM 128.00,224.00 C 128.00,153.307 185.307,96.00 256.00,96.00 C 326.693,96.00 384.00,153.307 384.00,224.00 C 384.00,294.693 326.693,352.00 256.00,352.00 C 185.307,352.00 128.00,294.693 128.00,224.00 Z" data-tags="ui-icon-radio-off" />
<glyph unicode="&#x6f;" d="M 192.00,224.00 C 192.00,259.347 220.653,288.00 256.00,288.00 C 291.347,288.00 320.00,259.347 320.00,224.00 C 320.00,188.653 291.347,160.00 256.00,160.00 C 220.653,160.00 192.00,188.653 192.00,224.00 ZM 128.00,224.00 C 128.00,153.307 185.307,96.00 256.00,96.00 C 326.693,96.00 384.00,153.307 384.00,224.00 C 384.00,294.693 326.693,352.00 256.00,352.00 C 185.307,352.00 128.00,294.693 128.00,224.00 Z" data-tags="ui-icon-bullet" />
<glyph unicode="&#x70;" d="M 128.00,224.00 C 128.00,294.693 185.307,352.00 256.00,352.00 C 326.693,352.00 384.00,294.693 384.00,224.00 C 384.00,153.307 326.693,96.00 256.00,96.00 C 185.307,96.00 128.00,153.307 128.00,224.00 Z" data-tags="ui-icon-bullet-b" />
<glyph unicode="&#x72;" d="M 232.00,8.00 C 232.00,21.254 242.746,32.00 256.00,32.00 C 269.254,32.00 280.00,21.254 280.00,8.00 C 280.00-5.254 269.254-16.00 256.00-16.00 C 242.746-16.00 232.00-5.254 232.00,8.00 ZM 112.00,480.00 C 85.49,480.00 64.00,458.51 64.00,432.00 L 64.00,16.00 C 64.00-10.51 85.49-32.00 112.00-32.00 L 400.00-32.00 C 426.51-32.00 448.00-10.51 448.00,16.00 L 448.00,432.00 C 448.00,458.51 426.51,480.00 400.00,480.00 L 112.00,480.00 ZM 144.00,448.00 L 368.00,448.00 C 394.51,448.00 416.00,426.51 416.00,400.00 L 416.00,112.00 C 416.00,85.49 394.51,64.00 368.00,64.00 L 144.00,64.00 C 117.49,64.00 96.00,85.49 96.00,112.00 L 96.00,400.00 C 96.00,426.51 117.49,448.00 144.00,448.00 Z" data-tags="ui-icon-smart-phone" />
<glyph unicode="&#x73;" d="M 96.00,174.33 L 128.00,174.33 L 192.00,109.866 C 188.00,276.062 284.00,388.874 416.00,383.838 C 415.00,383.838 414.00,354.627 413.536,354.088 C 211.536,353.082 222.00,108.859 221.00,109.866 C 215.00,116.917 288.00,174.33 288.00,174.33 L 320.00,174.33 L 205.536,64.00 L 96.00,174.33 Z" data-tags="ui-icon-arrowreturn-1-s" />
<glyph unicode="&#x74;" d="M 416.00,272.00 L 384.00,272.00 L 320.00,336.00 C 324.00,171.00 228.00,59.00 96.00,64.00 C 97.00,64.00 98.00,93.00 98.464,93.536 C 300.464,94.536 290.00,337.00 291.00,336.00 C 297.00,329.00 224.00,272.00 224.00,272.00 L 192.00,272.00 L 306.464,381.536 L 416.00,272.00 Z" data-tags="ui-icon-arrowreturn-1-n" />
<glyph unicode="&#x75;" d="M 305.312,382.688 L 305.312,350.688 L 369.312,286.688 C 204.312,290.688 92.312,194.688 97.312,62.688 C 97.312,63.688 126.312,64.688 126.848,65.152 C 127.848,267.152 370.312,256.688 369.312,257.688 C 362.312,263.688 305.312,190.688 305.312,190.688 L 305.312,158.688 L 414.848,273.152 L 305.312,382.688 Z" data-tags="ui-icon-arrowreturn-1-e" />
<glyph unicode="&#x76;" d="M 304.00,384.00 L 304.00,304.00 C 132.00,309.00 56.00,162.00 128.00,64.00 C 129.00,266.00 305.00,239.00 304.00,240.00 L 304.00,160.00 L 416.00,272.00 L 304.00,384.00 Z" data-tags="ui-icon-arrowreturnthick-1-e" />
<glyph unicode="&#x77;" d="M 418.464,178.464 L 338.464,178.464 C 343.464,350.464 196.464,426.464 98.464,354.464 C 300.464,353.464 273.464,177.464 274.464,178.464 L 194.464,178.464 L 306.464,66.464 L 418.464,178.464 Z" data-tags="ui-icon-arrowreturnthick-1-s" />
<glyph unicode="&#x78;" d="M 212.93,384.00 L 212.93,304.00 C 384.93,309.00 460.93,162.00 388.93,64.00 C 387.93,266.00 211.93,239.00 212.93,240.00 L 212.93,160.00 L 100.93,272.00 L 212.93,384.00 Z" data-tags="ui-icon-arrowreturnthick-1-w" />
<glyph unicode="&#x79;" d="M 418.464,269.536 L 338.464,269.536 C 343.464,97.536 196.464,21.536 98.464,93.536 C 300.464,94.536 273.464,270.536 274.464,269.536 L 194.464,269.536 L 306.464,381.536 L 418.464,269.536 Z" data-tags="ui-icon-arrowreturnthick-1-n" />
<glyph unicode="&#x7a;" d="M 136.00,280.499 L 168.00,248.499 L 126.00,94.499 L 280.00,136.499 L 312.00,104.499 L 80.501,48.00 L 136.00,280.499 ZM 374.462,184.00 L 342.17,216.71 L 387.379,365.622 L 233.938,326.347 L 204.312,356.358 L 432.00,408.00 L 374.462,184.00 Z" data-tags="ui-icon-carat-2-ne-sw" />
<glyph unicode="&#x7b;" d="M 376.501,280.499 L 344.501,248.499 L 386.501,94.499 L 232.501,136.499 L 200.501,104.499 L 432.00,48.00 L 376.501,280.499 ZM 138.038,184.00 L 170.33,216.71 L 125.122,365.622 L 278.563,326.347 L 308.189,356.358 L 80.501,408.00 L 138.038,184.00 Z" data-tags="ui-icon-carat-2-nw-se" />
<glyph unicode="&#x7c;" d="M 380.912,173.754 L 334.851,174.304 L 255.928,34.205 L 173.637,176.23 L 127.574,176.781 L 256.00-32.00 L 380.912,173.754 ZM 138.616,278.806 L 185.395,278.549 L 258.362,417.366 L 342.187,277.685 L 385.104,277.45 L 256.00,480.00 L 138.616,278.806 Z" data-tags="ui-icon-carat-2-n-s" />
<glyph unicode="&#x7d;" d="M 205.754,100.166 L 206.304,145.955 L 66.205,224.408 L 208.23,306.213 L 208.781,352.00 L 0.00,224.338 L 205.754,100.166 ZM 310.806,341.024 L 310.549,294.523 L 449.366,221.989 L 309.686,138.662 L 309.45,96.00 L 512.00,224.338 L 310.806,341.024 Z" data-tags="ui-icon-carat-2-e-w" />
<glyph unicode="&#xe000;" d="M 128.00,120.00 L 174.546,120.00 L 256.00,261.555 L 337.454,120.00 L 384.00,120.00 L 256.728,328.00 L 128.00,120.00 Z" data-tags="ui-icon-carat-1-n" />
<glyph unicode="&#xe001;" d="M 152.00,352.00 L 152.00,305.454 L 293.555,224.00 L 152.00,142.546 L 152.00,96.00 L 360.00,223.272 L 152.00,352.00 Z" data-tags="ui-icon-carat-1-e" />
<glyph unicode="&#xe002;" d="M 384.00,328.00 L 337.454,328.00 L 256.00,186.445 L 174.546,328.00 L 128.00,328.00 L 255.272,120.00 L 384.00,328.00 Z" data-tags="ui-icon-carat-1-s" />
<glyph unicode="&#xe003;" d="M 200.00,104.00 L 232.00,136.00 L 190.00,290.00 L 344.00,248.00 L 376.00,280.00 L 144.501,336.499 L 200.00,104.00 Z" data-tags="ui-icon-carat-1-nw" />
<glyph unicode="&#xe004;" d="M 320.501,104.00 L 288.501,136.00 L 330.501,290.00 L 176.501,248.00 L 144.501,280.00 L 376.00,336.499 L 320.501,104.00 Z" data-tags="ui-icon-carat-1-ne" />
<glyph unicode="&#xe005;" d="M 320.501,336.499 L 288.501,304.499 L 330.501,150.499 L 176.501,192.499 L 144.501,160.499 L 376.00,104.00 L 320.501,336.499 Z" data-tags="ui-icon-carat-1-se" />
<glyph unicode="&#xe006;" d="M 200.00,336.499 L 232.00,304.499 L 190.00,150.499 L 344.00,192.499 L 376.00,160.499 L 144.501,104.00 L 200.00,336.499 Z" data-tags="ui-icon-carat-1-sw" />
<glyph unicode="&#xe007;" d="M 256.00,400.00 L 128.00,272.00 L 384.00,272.00 L 256.00,400.00 ZM 256.00,48.00 L 384.00,176.00 L 128.00,176.00 L 256.00,48.00 Z" data-tags="ui-icon-triangle-2-n-s" />
<glyph unicode="&#xe008;" d="M 432.00,224.00 L 304.00,352.00 L 304.00,96.00 L 432.00,224.00 ZM 80.00,224.00 L 208.00,96.00 L 208.00,352.00 L 80.00,224.00 Z" data-tags="ui-icon-triangle-2-e-w" />
<glyph unicode="&#xe009;" d="M 160.00,320.00 L 352.00,320.00 L 160.00,128.00 L 160.00,320.00 Z" data-tags="ui-icon-triangle-1-nw" />
<glyph unicode="&#xe00a;" d="M 352.00,320.00 L 160.00,320.00 L 352.00,128.00 L 352.00,320.00 Z" data-tags="ui-icon-triangle-1-ne" />
<glyph unicode="&#xe00b;" d="M 352.00,128.00 L 160.00,128.00 L 352.00,320.00 L 352.00,128.00 Z" data-tags="ui-icon-triangle-1-se" />
<glyph unicode="&#xe00c;" d="M 160.00,128.00 L 352.00,128.00 L 160.00,320.00 L 160.00,128.00 Z" data-tags="ui-icon-triangle-1-sw" />
<glyph unicode="&#xe00d;" d="M 192.00,224.00 L 320.00,96.00 L 320.00,352.00 L 192.00,224.00 Z" data-tags="ui-icon-triangle-1-w" />
<glyph unicode="&#xe00e;" d="M 256.00,288.00 L 128.00,160.00 L 384.00,160.00 L 256.00,288.00 Z" data-tags="ui-icon-triangle-1-n" />
<glyph unicode="&#xe00f;" d="M 256.00,160.00 L 384.00,288.00 L 128.00,288.00 L 256.00,160.00 Z" data-tags="ui-icon-triangle-1-s" />
<glyph unicode="&#xe010;" d="M 320.00,224.00 L 192.00,352.00 L 192.00,96.00 L 320.00,224.00 Z" data-tags="ui-icon-triangle-1-e" />
<glyph unicode="&#xe011;" d="M 134.781,224.00 L 232.658,108.877 L 232.658,207.554 L 446.539,206.539 L 446.539,241.461 L 232.658,240.446 L 232.658,339.123 L 134.781,224.00 ZM 64.00,336.00L 96.00,336.00L 96.00,112.00L 64.00,112.00z" data-tags="ui-icon-arrowstop-1-w" />
<glyph unicode="&#xe012;" d="M 367.269,415.269 L 143.269,415.269 L 143.269,383.269 L 367.269,383.269 L 367.269,415.269 ZM 255.269,344.49 L 140.146,246.611 L 238.822,246.611 L 237.808,32.731 L 272.731,32.731 L 271.715,246.611 L 370.392,246.611 L 255.269,344.49 Z" data-tags="ui-icon-arrowstop-1-n" />
<glyph unicode="&#xe013;" d="M 446.539,112.00 L 446.539,336.00 L 414.539,336.00 L 414.539,112.00 L 446.539,112.00 ZM 375.758,224.00 L 277.882,339.123 L 277.882,240.446 L 64.00,241.461 L 64.00,206.539 L 277.882,207.554 L 277.882,108.877 L 375.758,224.00 Z" data-tags="ui-icon-arrowstop-1-e" />
<glyph unicode="&#xe014;" d="M 143.269,32.731 L 367.269,32.731 L 367.269,64.731 L 143.269,64.731 L 143.269,32.731 ZM 255.269,103.51 L 370.392,201.389 L 271.715,201.389 L 272.731,415.269 L 237.808,415.269 L 238.822,201.389 L 140.146,201.389 L 255.269,103.51 Z" data-tags="ui-icon-arrowstop-1-s" />
<glyph unicode="&#xe015;" d="M 402.683,77.317 L 408.00,231.494 L 339.645,163.139 L 316.861,140.355 L 248.506,72.00 L 402.683,77.317 ZM 104.00,376.00 L 104.00,216.00 L 167.238,289.904 L 316.571,140.571 L 339.429,163.429 L 190.096,312.762 L 264.00,376.00 L 104.00,376.00 Z" data-tags="ui-icon-arrow-2-se-nw" />
<glyph unicode="&#xe016;" d="M 117.317,69.317 L 271.494,64.00 L 203.139,132.355 L 180.355,155.139 L 112.00,223.494 L 117.317,69.317 ZM 416.00,368.00 L 256.00,368.00 L 329.904,304.762 L 180.571,155.429 L 203.429,132.571 L 352.762,281.904 L 416.00,208.00 L 416.00,368.00 Z" data-tags="ui-icon-arrow-2-ne-sw" />
<glyph unicode="&#xe017;" d="M 120.658,207.554 L 400.558,208.00 L 400.558,112.00 L 496.00,224.00 L 400.558,336.00 L 400.558,240.00 L 120.658,240.446 L 120.658,339.123 L 22.781,224.00 L 120.658,108.877 L 120.658,207.554 Z" data-tags="ui-icon-arrow-2-e-w" />
<glyph unicode="&#xe018;" d="M 240.00,364.72 L 240.434,80.81 L 147.038,80.81 L 256.00-16.00 L 364.962,80.81 L 271.566,80.81 L 272.00,364.72 L 368.00,364.72 L 256.00,464.00 L 144.00,364.72 L 240.00,364.72 Z" data-tags="ui-icon-arrow-2-n-s" />
<glyph unicode="&#xe019;" d="M 256.00,392.00 L 144.00,280.00 L 240.00,280.00 L 240.00,56.00 L 272.00,56.00 L 272.00,280.00 L 368.00,280.00 L 256.00,392.00 Z" data-tags="ui-icon-arrow-1-n" />
<glyph unicode="&#xe01a;" d="M 424.00,224.00 L 312.00,336.00 L 312.00,240.00 L 88.00,240.00 L 88.00,208.00 L 312.00,208.00 L 312.00,112.00 L 424.00,224.00 Z" data-tags="ui-icon-arrow-1-e" />
<glyph unicode="&#xe01b;" d="M 256.00,56.00 L 368.00,168.00 L 272.00,168.00 L 272.00,392.00 L 240.00,392.00 L 240.00,168.00 L 144.00,168.00 L 256.00,56.00 Z" data-tags="ui-icon-arrow-1-s" />
<glyph unicode="&#xe01c;" d="M 88.00,224.00 L 200.00,112.00 L 200.00,208.00 L 424.00,208.00 L 424.00,240.00 L 200.00,240.00 L 200.00,336.00 L 88.00,224.00 Z" data-tags="ui-icon-arrow-1-w" />
<glyph unicode="&#xe01d;" d="M 374.096,336.00 L 379.429,181.333 L 310.858,249.904 L 161.523,100.571 L 138.667,123.429 L 288.00,272.762 L 219.429,341.333 L 374.096,336.00 Z" data-tags="ui-icon-arrow-1-ne" />
<glyph unicode="&#xe01e;" d="M 374.096,105.904 L 379.429,260.571 L 310.858,192.00 L 161.523,341.333 L 138.667,318.477 L 288.00,169.142 L 219.429,100.571 L 374.096,105.904 Z" data-tags="ui-icon-arrow-1-se" />
<glyph unicode="&#xe01f;" d="M 144.00,105.904 L 138.667,260.571 L 207.238,192.00 L 356.571,341.333 L 379.429,318.477 L 230.096,169.142 L 298.667,100.571 L 144.00,105.904 Z" data-tags="ui-icon-arrow-1-sw" />
<glyph unicode="&#xe020;" d="M 144.00,336.00 L 138.667,181.333 L 207.238,249.904 L 356.571,100.571 L 379.429,123.429 L 230.096,272.762 L 298.667,341.333 L 144.00,336.00 Z" data-tags="ui-icon-arrow-1-ne" />
<glyph unicode="&#xe021;" d="M 80.00,127.84 L 80.00,144.00 L 16.00,144.00 L 16.00,112.00 L 80.00,112.00 C 124.65,112.00 155.158,141.712 182.08,177.76 L 168.32,197.68 C 145.406,167.291 119.035,144.00 80.00,144.00 C 80.25,143.25 80.125,135.528 80.00,127.84 ZM 384.00,130.32 L 388.00,128.00 L 384.00,125.68 L 384.00,130.32 ZM 384.00,322.32 L 388.00,320.00 L 384.00,317.68 L 384.00,322.32 ZM 320.00,400.00 L 304.00,368.00 L 360.08,336.00 L 320.00,336.00 C 262.79,336.00 230.997,292.315 201.28,246.64 C 171.581,292.31 139.838,336.00 82.637,336.00 C 82.358,336.278 80.531,326.315 80.00,317.44 L 80.00,336.00 L 16.00,336.00 L 16.00,304.00 L 80.00,304.00 L 80.00,309.44 C 80.296,306.206 81.078,304.00 82.637,304.00 C 128.578,304.00 158.598,266.87 187.44,225.28 L 182.88,218.40 L 196.32,197.68 L 201.36,204.96 C 232.957,158.75 266.035,113.451 320.00,112.00 L 322.637,112.00 L 360.00,112.00 L 304.00,80.00 L 320.00,48.00 L 448.00,128.00 L 320.00,208.00 L 304.00,176.00 L 360.08,144.00 L 322.637,144.00 L 320.00,144.00 C 271.354,145.317 242.595,183.339 215.20,225.20 C 244.043,266.816 274.034,304.00 320.00,304.00 L 360.00,304.00 L 304.00,272.00 L 320.00,240.00 L 448.00,320.00 L 320.00,400.00 Z" data-tags="ui-icon-shuffle" />
<glyph unicode="&#xe022;" d="M 368.00,400.00 L 368.00,304.00 L 192.00,304.00 L 192.00,240.00 L 368.00,240.00 L 368.00,144.00 L 496.00,272.00 L 368.00,400.00 ZM 144.00,48.00 L 144.00,144.00 L 320.00,144.00 L 320.00,208.00 L 144.00,208.00 L 144.00,304.00 L 16.00,176.00 L 144.00,48.00 Z" data-tags="ui-icon-transfer-e-w" />
<glyph unicode="&#xe023;" d="M 320.00,336.00 L 320.00,432.00 L 217.60,336.00 L 64.00,336.00 L 16.00,336.00 L 16.00,288.00 L 16.00,64.00 L 48.00,64.00 L 64.00,64.00 L 192.00,64.00 L 192.00-32.00 L 329.355,89.214 L 192.00,208.00 L 192.00,112.00 L 64.00,112.00 L 64.00,288.00 L 217.60,288.00 L 320.00,192.00 L 320.00,288.00 L 448.00,288.00 L 448.00,176.00 L 448.00,112.00 L 448.00,64.00 L 480.00,64.00 L 496.00,64.00 L 496.00,288.00 L 496.00,336.00 L 448.00,336.00 L 320.00,336.00 Z" data-tags="ui-icon-no-repeat" />
<glyph unicode="&#xe024;" d="M 320.00,336.00 L 320.00,432.00 L 217.60,336.00 L 64.00,336.00 L 16.00,336.00 L 16.00,288.00 L 16.00,64.00 L 48.00,64.00 L 64.00,64.00 L 192.00,64.00 L 192.00-32.00 L 294.40,64.00 L 320.00,64.00 L 448.00,64.00 L 480.00,64.00 L 496.00,64.00 L 496.00,288.00 L 496.00,336.00 L 448.00,336.00 L 320.00,336.00 ZM 320.00,192.00 L 320.00,288.00 L 448.00,288.00 L 448.00,112.00 L 320.00,112.00 L 294.40,112.00 L 192.00,208.00 L 192.00,112.00 L 64.00,112.00 L 64.00,288.00 L 217.60,288.00 L 320.00,192.00 Z" data-tags="ui-icon-refresh" />
<glyph unicode="&#xe025;" d="M 160.00,432.00 L 160.00,160.00 L 480.00,160.00 L 480.00,432.00 L 160.00,432.00 ZM 432.00,192.00 L 208.00,192.00 L 208.00,337.00 L 432.00,337.00 L 432.00,192.00 ZM 345.60,108.44 L 345.60,62.219 L 76.80,62.219 L 76.80,288.00 L 127.00,288.00 L 127.00,336.00 L 32.00,336.00 L 32.00,293.318 L 32.00,62.219 L 32.00,16.00 L 76.80,16.00 L 345.60,16.00 L 390.40,16.00 L 390.40,62.219 L 390.40,108.44 L 345.60,108.44 Z" data-tags="ui-icon-newwin" />
<glyph unicode="&#xe026;" d="M 80.00,384.00 L 256.00,384.00 L 256.00,416.00 L 48.00,416.00 L 48.00,16.00 L 464.00,16.00 L 464.00,224.00 L 432.00,224.00 L 432.00,48.00 L 80.00,48.00 L 80.00,384.00 ZM 304.00,480.00 L 384.00,400.00 L 176.00,192.00 L 224.00,144.00 L 432.00,352.00 L 512.00,272.00 L 512.00,480.00 L 304.00,480.00 Z" data-tags="ui-icon-extlink" />
<glyph unicode="&#xe027;" d="M 72.00,408.00 L 35.20,248.533 L 108.80,322.133 L 206.933,224.00 L 108.80,125.867 L 35.20,199.467 L 72.00,40.00 L 231.467,3.20 L 157.867,76.80 L 256.00,174.933 L 354.133,76.80 L 280.533,3.20 L 440.00,40.00 L 476.80,199.467 L 403.20,125.867 L 305.067,224.00 L 403.20,322.133 L 476.80,248.533 L 440.00,408.00 L 280.533,444.80 L 354.133,371.20 L 256.00,273.067 L 157.867,371.20 L 231.467,444.80 L 72.00,408.00 Z" data-tags="ui-icon-arrow-4-diag" />
<glyph unicode="&#xe028;" d="M 256.00,464.00 L 128.00,384.00 L 224.00,384.00 L 224.00,256.00 L 96.00,256.00 L 96.00,352.00 L 16.00,224.00 L 96.00,96.00 L 96.00,192.00 L 224.00,192.00 L 224.00,64.00 L 128.00,64.00 L 256.00-16.00 L 384.00,64.00 L 288.00,64.00 L 288.00,192.00 L 416.00,192.00 L 416.00,96.00 L 496.00,224.00 L 416.00,352.00 L 416.00,256.00 L 288.00,256.00 L 288.00,384.00 L 384.00,384.00 L 256.00,464.00 Z" data-tags="ui-icon-arrow-4" />
<glyph unicode="&#xe029;" d="M 400.395,175.99 L 400.395,79.99 L 352.582,79.99 L 352.582,272.01 L 256.976,272.01 L 256.976,79.99 L 209.184,79.99 L 209.184,368.01 L 113.578,368.01 L 113.578,79.99 L 63.813,79.99 L 63.813,416.00 L 16.00,416.00 L 16.00,175.99 L 16.00,128.00 L 16.00,79.99 L 16.00,32.00 L 63.813,32.00 L 113.578,32.00 L 209.184,32.00 L 256.976,32.00 L 352.582,32.00 L 400.395,32.00 L 494.046,32.00 L 496.00,32.00 L 496.00,175.99 L 400.395,175.99 Z" data-tags="ui-icon-graph-bar-vertical" />
<glyph unicode="&#xe02a;" d="M 51.208,67.989 L 51.208,120.00 L 258.083,120.00 L 258.083,171.989 L 51.208,171.989 L 51.208,224.00 L 360.501,224.00 L 360.501,276.011 L 51.208,276.011 L 51.208,328.00 L 462.875,328.00 L 462.875,380.011 L 51.208,380.011 L 51.208,432.00 L 0.00,432.00 L 0.00,171.989 L 0.00,120.00 L 0.00,67.989 L 0.00,16.00 L 51.208,16.00 L 512.00,16.00 L 512.00,67.989 L 51.208,67.989 Z" data-tags="ui-icon-graph-bar-horizontal" />
<glyph unicode="&#xe02b;" d="M 204.792,377.605 C 91.709,377.605 0.00,285.896 0.00,172.792 C 0.00,59.709 91.709-32.00 204.792-32.00 C 317.896-32.00 409.605,59.709 409.605,172.792 L 204.792,172.792 L 204.792,377.605 ZM 256.00,480.00 L 256.00,224.00 L 512.00,224.00 C 512.00,365.395 397.395,480.00 256.00,480.00 Z" data-tags="ui-icon-graph-pie-7" />
<glyph unicode="&#xe02c;" d="M 256.00,464.00 C 123.442,464.00 16.00,356.578 16.00,224.00 C 16.00,91.461 123.442-16.00 256.00-16.00 C 388.558-16.00 496.00,91.461 496.00,224.00 C 496.00,356.578 388.558,464.00 256.00,464.00 ZM 256.00,32.008 C 149.965,32.008 64.008,117.984 64.008,224.00 C 64.008,245.25 68.304,265.366 74.691,284.469 L 256.00,224.00 L 256.00,415.992 C 362.035,415.992 447.992,330.054 447.992,224.00 C 447.992,117.984 362.035,32.008 256.00,32.008 Z" data-tags="ui-icon-graph-pie-5" />
<glyph unicode="&#xe02d;" d="M 232.00,456.00 C 232.00,452.078 232.973,448.389 234.64,445.12 C 126.048,414.01 157.224,142.026 128.00,126.00 C 71.00,109.00 64.00,115.00 48.00,64.00 L 256.00,64.00 L 464.00,64.00 C 448.00,115.00 441.00,111.00 384.00,128.00 C 354.776,144.026 386.022,414.202 277.44,445.12 C 279.102,448.384 280.00,452.085 280.00,456.00 C 280.00,469.254 269.254,480.00 256.00,480.00 C 242.746,480.00 232.00,469.254 232.00,456.00 ZM 208.96,32.00 C 213.408,13.742 232.778,0.00 256.00,0.00 C 279.222,0.00 298.592,13.742 303.04,32.00 L 256.00,32.00 L 208.96,32.00 Z" data-tags="ui-icon-alarm" />
<glyph unicode="&#xe02e;" d="M 469.333,352.00 L 0.00,352.00 L 0.00,96.00 L 469.333,96.00 L 469.333,181.333 L 512.00,181.333 L 512.00,266.667 L 469.333,266.667 L 469.333,352.00 Z" data-tags="ui-icon-battery-0" />
<glyph unicode="&#xe02f;" d="M 469.333,352.00 L 0.00,352.00 L 0.00,96.00 L 469.333,96.00 L 469.333,181.333 L 512.00,181.333 L 512.00,266.667 L 469.333,266.667 L 469.333,352.00 ZM 128.00,138.667 L 42.667,138.667 L 42.667,309.333 L 128.00,309.333 L 128.00,138.667 Z" data-tags="ui-icon-battery-1" />
<glyph unicode="&#xe030;" d="M 469.333,352.00 L 0.00,352.00 L 0.00,96.00 L 469.333,96.00 L 469.333,181.333 L 512.00,181.333 L 512.00,266.667 L 469.333,266.667 L 469.333,352.00 ZM 256.00,138.667 L 42.667,138.667 L 42.667,309.333 L 256.00,309.333 L 256.00,138.667 Z" data-tags="ui-icon-battery-2" />
<glyph unicode="&#xe031;" d="M 469.333,352.00 L 0.00,352.00 L 0.00,96.00 L 469.333,96.00 L 469.333,181.333 L 512.00,181.333 L 512.00,266.667 L 469.333,266.667 L 469.333,352.00 ZM 426.667,138.667 L 42.667,138.667 L 42.667,309.333 L 426.667,309.333 L 426.667,138.667 Z" data-tags="ui-icon-battery-3" />
<glyph unicode="&#xe032;" d="M 384.00,480.00 L 128.00,224.00 L 213.29,224.00 L 128.00-32.00 L 384.00,224.00 L 298.71,224.00 L 384.00,480.00 Z" data-tags="ui-icon-bolt" />
<glyph unicode="&#xe033;" d="M 432.00,64.00 L 361.60,64.00 L 361.60,384.00 L 432.00,384.00 L 432.00,64.00 ZM 291.20,64.018 L 220.80,64.018 L 220.80,304.013 L 291.20,304.013 L 291.20,64.018 ZM 150.40,64.018 L 80.00,64.018 L 80.00,184.006 L 150.40,184.006 L 150.40,64.018 Z" data-tags="ui-icon-signal" />
<glyph unicode="&#xe034;" d="M 160.00,96.00 C 160.00,78.33 145.67,64.00 128.00,64.00 C 110.33,64.00 96.00,78.33 96.00,96.00 C 96.00,113.67 110.33,128.00 128.00,128.00 C 145.67,128.00 160.00,113.67 160.00,96.00 ZM 96.00,384.00 L 96.00,382.125 C 106.515,383.28 117.171,384.00 128.00,384.00 L 96.00,384.00 ZM 128.00,384.00 C 117.171,384.00 106.515,383.28 96.00,382.125 L 96.00,323.923 C 106.483,325.392 117.11,326.406 128.00,326.406 C 255.03,326.406 358.39,223.032 358.39,96.00 C 358.39,85.112 357.376,74.483 355.907,64.00 L 414.125,64.00 C 415.28,74.515 416.00,85.171 416.00,96.00 C 416.00,255.046 287.046,384.00 128.00,384.00 ZM 128.00,268.813 C 117.062,268.813 106.39,267.67 96.00,265.718 L 96.00,206.109 C 106.218,209.094 116.813,211.187 128.00,211.187 C 191.546,211.187 243.187,159.533 243.187,96.00 C 243.187,84.813 241.094,74.216 238.109,64.00 L 297.718,64.00 C 299.67,74.39 300.813,85.062 300.813,96.00 C 300.813,191.28 223.296,268.813 128.00,268.813 Z" data-tags="ui-icon-signal-diag" />
<glyph unicode="&#xe035;" d="M 319.984,370.515 L 319.984,334.294 C 358.109,312.122 384.032,271.291 384.032,224.008 C 384.032,153.301 326.704,95.97 256.00,95.97 C 185.296,95.97 127.968,153.301 127.968,224.008 C 127.968,271.274 153.875,312.106 191.984,334.278 L 191.984,370.499 C 135.533,345.781 96.00,289.573 96.00,224.008 C 96.00,135.646 167.642,64.00 256.00,64.00 C 344.358,64.00 416.00,135.646 416.00,224.008 C 416.00,289.589 376.454,345.808 319.984,370.515 ZM 223.984,224.008 L 287.984,224.008 L 287.984,384.00 L 223.984,384.00 L 223.984,224.008 Z" data-tags="ui-icon-power" />
<glyph unicode="&#xe036;" d="M 56.00,288.00 L 56.00,176.00 L 133.92,176.00 L 232.00,63.00 L 232.00,382.499 L 136.24,288.00 L 56.00,288.00 ZM 296.00,352.00 C 366.693,352.00 424.00,294.693 424.00,224.00 C 424.00,153.307 366.693,96.00 296.00,96.00 L 296.00,64.00 C 384.366,64.00 456.00,135.634 456.00,224.00 C 456.00,312.366 384.366,384.00 296.00,384.00 L 296.00,352.00 ZM 299.92,304.00 C 317.486,282.086 328.00,254.27 328.00,224.00 C 328.00,193.73 317.486,165.914 299.92,144.00 L 338.56,144.00 C 352.173,167.534 360.00,194.858 360.00,224.00 C 360.00,253.142 352.173,280.466 338.56,304.00 L 299.92,304.00 Z" data-tags="ui-icon-volume-on" />
<glyph unicode="&#xe037;" d="M 56.00,288.00 L 56.00,176.00 L 133.92,176.00 L 232.00,63.00 L 232.00,382.499 L 136.24,288.00 L 56.00,288.00 ZM 299.92,304.00 C 317.486,282.086 328.00,254.27 328.00,224.00 C 328.00,193.73 317.486,165.914 299.92,144.00 L 338.56,144.00 C 352.173,167.534 360.00,194.858 360.00,224.00 C 360.00,253.142 352.173,280.466 338.56,304.00 L 299.92,304.00 Z" data-tags="ui-icon-volume-1" />
<glyph unicode="&#xe038;" d="M 56.00,288.00 L 56.00,176.00 L 133.92,176.00 L 232.00,63.00 L 232.00,382.499 L 136.24,288.00 L 56.00,288.00 ZM 320.501,128.00 L 370.75,189.499 L 415.501,128.00 L 464.00,128.00 L 396.501,221.25 L 464.00,304.00 L 431.75,304.00 L 381.501,242.25 L 336.501,304.00 L 288.00,304.00 L 355.75,210.75 L 288.00,128.00 L 320.501,128.00 L 320.501,128.00 Z" data-tags="ui-icon-volume-off" />
<glyph unicode="&#xe039;" d="M 96.00,192.00 L 256.00,384.00 L 416.00,192.00 L 96.00,192.00 ZM 96.00,144.00L 416.00,144.00L 416.00,96.00L 96.00,96.00z" data-tags="ui-icon-eject" />
<glyph unicode="&#xe03a;" d="M 248.00,384.00 L 248.00,241.76 L 120.00,384.00 L 120.00,64.00 L 248.00,206.24 L 248.00,64.00 L 392.00,224.00 L 248.00,384.00 Z" data-tags="ui-icon-seek-next" />
<glyph unicode="&#xe03b;" d="M 264.00,64.00 L 264.00,206.24 L 392.00,64.00 L 392.00,384.00 L 264.00,241.76 L 264.00,384.00 L 120.00,224.00 L 264.00,64.00 Z" data-tags="ui-icon-seek-prev" />
<glyph unicode="&#xe03c;" d="M 240.00,384.00 L 240.00,241.76 L 112.00,384.00 L 112.00,64.00 L 240.00,206.24 L 240.00,64.00 L 368.00,206.24 L 368.00,64.00 L 400.00,64.00 L 400.00,384.00 L 368.00,384.00 L 368.00,241.76 L 240.00,384.00 Z" data-tags="ui-icon-seek-end" />
<glyph unicode="&#xe03d;" d="M 289.00,432.00 L 400.00,432.00 L 400.00,16.00 L 288.00,16.00 L 289.00,432.00 ZM 112.00,432.00 L 224.00,432.00 L 224.00,16.00 L 112.00,16.00 L 112.00,432.00 Z" data-tags="ui-icon-pause" />
<glyph unicode="&#xe03e;" d="M 184.00,400.00 L 360.00,224.00 L 184.00,48.00 L 184.00,400.00 Z" data-tags="ui-icon--play" />
<glyph unicode="&#xe03f;" d="M 96.00,384.00L 416.00,384.00L 416.00,64.00L 96.00,64.00z" data-tags="ui-icon-stop" />
<glyph unicode="&#xe040;" d="M 320.00,437.333 L 405.333,352.00 L 320.00,352.00 L 320.00,437.333 ZM 320.00,480.00 L 64.00,480.00 L 64.00-32.00 L 298.16-32.00 C 281.536-23.923 266.555-13.054 253.76,0.00 L 96.00,0.00 L 96.00,448.00 L 288.00,448.00 L 288.00,320.00 L 416.00,320.00 L 416.00,264.64 C 427.253,261.098 437.971,256.362 448.00,250.56 L 448.00,352.00 L 320.00,480.00 ZM 300.802,98.286 L 272.00,98.286 L 272.00,125.714 L 300.802,125.714 C 302.174,132.458 304.538,138.84 307.725,144.706 L 285.714,166.12 L 299.429,180.571 L 319.518,160.482 C 328.846,169.81 340.853,176.474 354.286,179.198 L 354.286,208.00 L 381.714,208.00 L 381.714,179.198 C 395.147,176.474 407.147,169.81 416.482,160.482 L 436.571,180.571 L 450.286,166.12 L 428.267,144.706 C 431.469,138.846 433.826,132.458 435.205,125.714 L 464.00,125.714 L 464.00,98.286 L 435.205,98.286 C 433.826,91.536 431.456,85.16 428.267,79.294 L 450.286,57.88 L 436.571,43.429 L 416.482,63.518 C 407.16,54.197 395.147,47.526 381.714,44.795 L 381.714,16.00 L 354.286,16.00 L 354.286,44.795 C 340.853,47.526 328.853,54.197 319.518,63.518 L 299.429,43.429 L 285.714,57.88 L 307.725,79.294 C 304.531,85.16 302.174,91.536 300.802,98.286 ZM 368.00,240.00 C 297.298,240.00 240.00,182.688 240.00,112.00 C 240.00,41.298 297.298-16.00 368.00-16.00 C 438.688-16.00 496.00,41.298 496.00,112.00 C 496.00,182.688 438.688,240.00 368.00,240.00 ZM 330.594,112.00 C 330.594,91.349 347.341,74.594 368.00,74.594 C 388.651,74.594 405.406,91.349 405.406,112.00 C 405.406,132.659 388.651,149.406 368.00,149.406 C 347.341,149.406 330.594,132.659 330.594,112.00 Z" data-tags="ui-icon-document-cog" />
<glyph unicode="&#xe041;" d="M 320.00,437.333 L 405.333,352.00 L 320.00,352.00 L 320.00,437.333 ZM 320.00,480.00 L 64.00,480.00 L 64.00-32.00 L 298.16-32.00 C 281.536-23.923 266.555-13.054 253.76,0.00 L 96.00,0.00 L 96.00,448.00 L 288.00,448.00 L 288.00,320.00 L 416.00,320.00 L 416.00,264.64 C 427.253,261.098 437.971,256.362 448.00,250.56 L 448.00,352.00 L 320.00,480.00 ZM 437.84-32.00 L 448.00-32.00 L 448.00-26.64 C 444.686-28.557 441.298-30.32 437.84-32.00 ZM 344.195,108.706 C 339.944,107.282 335.403,106.499 330.675,106.499 C 307.107,106.499 288.00,125.64 288.00,149.25 C 288.00,172.859 307.107,192.00 330.675,192.00 C 354.242,192.00 373.349,172.859 373.349,149.25 C 373.349,144.512 372.568,139.965 371.147,135.706 L 431.746,75.00 L 432.00,48.00 L 409.285,48.00 L 409.285,61.499 L 400.621,57.00 L 400.621,70.808 L 391.317,66.00 L 391.317,79.499 L 382.333,75.00 L 382.333,88.499 L 373.349,84.00 L 373.349,97.499 L 364.365,93.00 L 364.365,107.019 L 350.958,101.93 L 344.195,108.706 ZM 368.00,240.00 C 297.298,240.00 240.00,182.688 240.00,112.00 C 240.00,41.298 297.298-16.00 368.00-16.00 C 438.688-16.00 496.00,41.298 496.00,112.00 C 496.00,182.688 438.688,240.00 368.00,240.00 ZM 373.349,120.00 L 368.858,115.499 L 422.762,61.499 L 427.253,66.00 L 373.349,120.00 ZM 346.397,165.114 C 335.939,175.59 320.397,177.006 311.682,168.277 C 302.968,159.546 304.381,143.976 314.838,133.499 L 346.397,165.114 Z" data-tags="ui-icon-document-key" />
<glyph unicode="&#xe042;" d="M 320.00,437.333 L 405.333,352.00 L 320.00,352.00 L 320.00,437.333 ZM 320.00,480.00 L 64.00,480.00 L 64.00-32.00 L 298.16-32.00 C 281.536-23.923 266.555-13.054 253.76,0.00 L 96.00,0.00 L 96.00,448.00 L 288.00,448.00 L 288.00,320.00 L 416.00,320.00 L 416.00,264.64 C 427.253,261.098 437.971,256.362 448.00,250.56 L 448.00,352.00 L 320.00,480.00 ZM 437.84-32.00 L 448.00-32.00 L 448.00-26.64 C 444.686-28.557 441.298-30.32 437.84-32.00 ZM 448.00,171.115 L 394.25,112.006 L 448.00,52.888 L 421.75,24.00 L 368.00,83.125 L 314.25,24.00 L 288.00,52.888 L 341.75,112.006 L 288.00,171.115 L 314.25,200.00 L 368.00,140.875 L 421.75,200.00 L 448.00,171.115 ZM 368.00,240.00 C 297.298,240.00 240.00,182.688 240.00,112.00 C 240.00,41.298 297.298-16.00 368.00-16.00 C 438.688-16.00 496.00,41.298 496.00,112.00 C 496.00,182.688 438.688,240.00 368.00,240.00 Z" data-tags="ui-icon-document-x" />
<glyph unicode="&#xe043;" d="M 294.194,229.677 L 267.87,256.00 L 224.00,220.904 L 250.323,194.581 L 294.194,229.677 ZM 487.226,27.87 L 443.355-7.226 L 496.00-16.00 L 487.226,27.87 ZM 469.677,46.517 L 311.742,212.13 L 267.87,177.032 L 425.806,11.419 L 469.677,46.517 ZM 320.00,437.333 L 405.333,352.00 L 320.00,352.00 L 320.00,437.333 ZM 320.00,480.00 L 64.00,480.00 L 64.00-32.00 L 298.16-32.00 C 281.536-23.923 266.555-13.054 253.76,0.00 L 96.00,0.00 L 96.00,448.00 L 288.00,448.00 L 288.00,320.00 L 416.00,320.00 L 416.00,264.64 C 427.253,261.098 437.971,256.362 448.00,250.56 L 448.00,352.00 L 320.00,480.00 Z" data-tags="ui-icon-document-edit" />
<glyph unicode="&#xe044;" d="M 320.00,437.333 L 405.333,352.00 L 320.00,352.00 L 320.00,437.333 ZM 320.00,480.00 L 64.00,480.00 L 64.00-32.00 L 298.16-32.00 C 281.536-23.923 266.555-13.054 253.76,0.00 L 96.00,0.00 L 96.00,448.00 L 288.00,448.00 L 288.00,320.00 L 416.00,320.00 L 416.00,264.64 C 427.253,261.098 437.971,256.362 448.00,250.56 L 448.00,352.00 L 320.00,480.00 ZM 437.84-32.00 L 448.00-32.00 L 448.00-26.64 C 444.686-28.557 441.298-30.32 437.84-32.00 ZM 387.20,0.00 L 364.80,0.00 L 364.80,21.894 C 352.374,21.894 337.501,25.486 320.00,32.842 L 320.00,54.738 C 336.45,47.211 351.325,43.448 364.80,43.789 L 364.80,94.25 L 358.501,98.013 C 343.45,106.738 333.299,114.262 328.05,120.763 C 322.626,127.262 320.00,135.131 320.00,144.368 C 320.00,155.658 324.026,165.066 332.075,172.592 C 340.125,180.118 350.974,184.566 364.80,186.106 L 364.80,208.00 L 387.20,208.00 L 387.20,186.106 C 401.899,185.078 416.774,181.486 432.00,175.158 L 432.00,153.262 C 416.60,160.277 401.55,163.869 387.20,164.211 L 387.20,115.118 L 392.626,111.869 C 407.675,102.974 418.00,95.277 423.60,89.118 C 429.20,82.96 432.00,75.262 432.00,66.368 C 432.00,54.566 427.974,44.645 419.925,36.776 C 411.875,28.738 401.026,23.776 387.20,21.894 L 387.20,0.00 ZM 368.00,240.00 C 297.298,240.00 240.00,182.688 240.00,112.00 C 240.00,41.298 297.298-16.00 368.00-16.00 C 438.688-16.00 496.00,41.298 496.00,112.00 C 496.00,182.688 438.688,240.00 368.00,240.00 ZM 387.20,80.738 L 387.20,43.789 C 394.55,46.698 398.40,52.514 398.40,61.066 C 398.40,67.566 394.55,74.066 387.20,80.738 ZM 353.60,147.789 C 353.60,140.776 357.275,134.277 364.80,128.461 L 364.80,164.211 C 357.275,161.131 353.60,155.658 353.60,147.789 Z" data-tags="ui-icon-document-dollar" />
<glyph unicode="&#xe045;" d="M 320.00,437.333 L 405.333,352.00 L 320.00,352.00 L 320.00,437.333 ZM 320.00,480.00 L 64.00,480.00 L 64.00-32.00 L 298.16-32.00 C 281.536-23.923 266.555-13.054 253.76,0.00 L 96.00,0.00 L 96.00,448.00 L 288.00,448.00 L 288.00,320.00 L 416.00,320.00 L 416.00,264.64 C 427.253,261.098 437.971,256.362 448.00,250.56 L 448.00,352.00 L 320.00,480.00 ZM 437.84-32.00 L 448.00-32.00 L 448.00-26.64 C 444.686-28.557 441.298-30.32 437.84-32.00 ZM 352.00,192.499 L 352.00,144.00 L 464.00,144.00 L 464.00,80.00 L 352.00,80.00 L 352.00,32.00 L 272.968,111.032 L 352.00,192.499 ZM 368.00,240.00 C 297.298,240.00 240.00,182.688 240.00,112.00 C 240.00,41.298 297.298-16.00 368.00-16.00 C 438.688-16.00 496.00,41.298 496.00,112.00 C 496.00,182.688 438.688,240.00 368.00,240.00 Z" data-tags="ui-icon-document-arrow-left" />
<glyph unicode="&#xe046;" d="M 320.00,437.333 L 405.333,352.00 L 320.00,352.00 L 320.00,437.333 ZM 320.00,480.00 L 64.00,480.00 L 64.00-32.00 L 298.16-32.00 C 281.536-23.923 266.555-13.054 253.76,0.00 L 96.00,0.00 L 96.00,448.00 L 288.00,448.00 L 288.00,320.00 L 416.00,320.00 L 416.00,264.64 C 427.253,261.098 437.971,256.362 448.00,250.56 L 448.00,352.00 L 320.00,480.00 ZM 437.84-32.00 L 448.00-32.00 L 448.00-26.64 C 444.686-28.557 441.298-30.32 437.84-32.00 ZM 287.501,96.00 L 336.00,96.00 L 336.00,208.00 L 400.00,208.00 L 400.00,96.00 L 448.00,96.00 L 368.968,16.968 L 287.501,96.00 ZM 240.00,112.00 C 240.00,41.298 297.312-16.00 368.00-16.00 C 438.702-16.00 496.00,41.298 496.00,112.00 C 496.00,182.688 438.702,240.00 368.00,240.00 C 297.312,240.00 240.00,182.688 240.00,112.00 Z" data-tags="ui-icon-document-arrow-down" />
<glyph unicode="&#xe047;" d="M 320.00,437.333 L 405.333,352.00 L 320.00,352.00 L 320.00,437.333 ZM 320.00,480.00 L 64.00,480.00 L 64.00-32.00 L 298.16-32.00 C 281.536-23.923 266.555-13.054 253.76,0.00 L 96.00,0.00 L 96.00,448.00 L 288.00,448.00 L 288.00,320.00 L 416.00,320.00 L 416.00,264.64 C 427.253,261.098 437.971,256.362 448.00,250.56 L 448.00,352.00 L 320.00,480.00 ZM 437.84-32.00 L 448.00-32.00 L 448.00-26.64 C 444.686-28.557 441.298-30.32 437.84-32.00 ZM 384.00,31.499 L 384.00,80.00 L 272.00,80.00 L 272.00,144.00 L 384.00,144.00 L 384.00,192.00 L 463.032,112.968 L 384.00,31.499 ZM 368.00-16.00 C 438.702-16.00 496.00,41.312 496.00,112.00 C 496.00,182.702 438.702,240.00 368.00,240.00 C 297.312,240.00 240.00,182.702 240.00,112.00 C 240.00,41.312 297.312-16.00 368.00-16.00 Z" data-tags="ui-icon-document-arrow-right" />
<glyph unicode="&#xe048;" d="M 320.00,437.333 L 405.333,352.00 L 320.00,352.00 L 320.00,437.333 ZM 320.00,480.00 L 64.00,480.00 L 64.00-32.00 L 298.16-32.00 C 281.536-23.923 266.555-13.054 253.76,0.00 L 96.00,0.00 L 96.00,448.00 L 288.00,448.00 L 288.00,320.00 L 416.00,320.00 L 416.00,264.64 C 427.253,261.098 437.971,256.362 448.00,250.56 L 448.00,352.00 L 320.00,480.00 ZM 437.84-32.00 L 448.00-32.00 L 448.00-26.64 C 444.686-28.557 441.298-30.32 437.84-32.00 ZM 448.501,128.00 L 400.00,128.00 L 400.00,16.00 L 336.00,16.00 L 336.00,128.00 L 288.00,128.00 L 367.032,207.032 L 448.501,128.00 ZM 496.00,112.00 C 496.00,182.702 438.688,240.00 368.00,240.00 C 297.298,240.00 240.00,182.702 240.00,112.00 C 240.00,41.312 297.298-16.00 368.00-16.00 C 438.688-16.00 496.00,41.312 496.00,112.00 Z" data-tags="ui-icon-document-arrow-up" />
<glyph unicode="&#xe049;" d="M 364.80,16.00 L 339.20,16.00 L 339.20,36.211 C 325.00,36.211 308.00,39.526 288.00,46.315 L 288.00,66.526 C 306.80,59.579 323.80,56.106 339.20,56.421 L 339.20,103.00 L 332.00,106.474 C 314.80,114.526 303.20,121.474 297.20,127.474 C 291.00,133.474 288.00,140.738 288.00,149.262 C 288.00,159.685 292.60,168.368 301.80,175.315 C 311.00,182.262 323.40,186.368 339.20,187.789 L 339.20,208.00 L 364.80,208.00 L 364.80,187.789 C 381.60,186.842 398.60,183.526 416.00,177.685 L 416.00,157.474 C 398.40,163.947 381.20,167.262 364.80,167.579 L 364.80,122.262 L 371.00,119.262 C 388.20,111.053 400.00,103.947 406.40,98.262 C 412.80,92.579 416.00,85.474 416.00,77.262 C 416.00,66.368 411.40,57.211 402.20,49.947 C 393.00,42.526 380.60,37.947 364.80,36.211 L 364.80,16.00 ZM 224.00,112.00 C 224.00,41.298 281.312-16.00 352.00-16.00 C 422.702-16.00 480.00,41.298 480.00,112.00 C 480.00,182.688 422.702,240.00 352.00,240.00 C 281.312,240.00 224.00,182.688 224.00,112.00 ZM 364.80,90.526 L 364.80,56.421 C 373.20,59.106 377.60,64.474 377.60,72.368 C 377.60,78.368 373.20,84.368 364.80,90.526 ZM 326.40,152.421 C 326.40,145.947 330.60,139.947 339.20,134.579 L 339.20,167.579 C 330.60,164.738 326.40,159.685 326.40,152.421 ZM 359.984,360.00 C 359.984,418.867 308.406,472.00 249.531,472.00 C 190.656,472.00 135.984,418.867 135.984,360.00 L 136.00,296.00 L 152.00,248.00 L 200.00,168.00 L 201.758,167.125 C 224.227,228.32 283.016,272.00 352.00,272.00 L 360.00,296.00 L 359.984,360.00 ZM 192.563,125.36 C 77.859,104.187 -8.00,21.157 -8.00-40.00 L 301.922-40.00 C 238.094-18.968 192.00,41.125 192.00,112.00 C 192.00,116.499 192.195,120.938 192.563,125.36 ZM 503.485-40.00 C 503.485-21.688 495.781-1.437 481.922,18.563 C 462.374-8.578 434.578-29.328 402.157-40.00 L 503.485-40.00 Z" data-tags="ui-icon-person-dollar" />
<glyph unicode="&#xe04a;" d="M 182.40,0.00 L 182.40,47.158 C 210.05,51.211 231.75,61.894 247.85,79.211 C 263.95,96.158 272.00,117.526 272.00,142.947 C 272.00,162.106 266.40,178.685 255.20,191.947 C 244.00,205.211 223.35,221.789 193.25,240.947 L 182.40,247.947 L 182.40,353.685 C 211.101,352.947 241.20,345.211 272.00,330.106 L 272.00,377.262 C 241.55,390.894 211.80,398.632 182.40,400.842 L 182.40,448.00 L 137.60,448.00 L 137.60,400.842 C 109.95,397.526 88.25,387.947 72.15,371.738 C 56.05,355.526 48.00,335.262 48.00,310.947 C 48.00,291.053 53.25,274.106 64.099,260.106 C 74.60,246.106 94.901,229.894 125.00,211.106 L 137.60,203.00 L 137.60,94.315 C 110.65,93.579 80.901,101.685 48.00,117.894 L 48.00,70.738 C 83.00,54.894 112.75,47.158 137.60,47.158 L 137.60,0.00 L 182.40,0.00 L 182.40,0.00 ZM 182.40,173.894 C 197.101,159.526 204.80,145.526 204.80,131.526 C 204.80,113.106 197.101,100.579 182.40,94.315 L 182.40,173.894 L 182.40,173.894 ZM 115.20,318.315 C 115.20,335.262 122.55,347.053 137.60,353.685 L 137.60,276.685 C 122.55,289.211 115.20,303.211 115.20,318.315 L 115.20,318.315 ZM 352.501,0.475 L 469.333,159.541 L 447.501,159.541 L 330.667,0.475 L 352.501,0.475 L 352.501,0.475 ZM 384.667,93.76 C 391.333,101.216 394.667,110.827 394.667,122.59 C 394.667,134.024 391.333,143.469 384.667,150.925 C 378.00,158.381 368.834,161.198 357.333,159.541 C 345.667,161.198 336.667,158.381 330.00,150.925 C 323.333,143.469 320.00,134.024 320.00,122.426 C 320.00,110.827 323.166,101.382 329.834,93.926 C 336.501,86.304 345.501,83.488 357.00,85.31 C 368.667,83.488 378.00,86.304 384.667,93.76 L 384.667,93.76 ZM 336.00,122.426 C 339.501,139.989 346.667,148.936 357.333,148.936 C 368.00,148.936 374.166,140.155 376.00,122.59 C 374.166,104.696 367.834,95.914 357.166,95.914 C 346.501,95.914 339.501,104.696 336.00,122.426 L 336.00,122.426 ZM 470.00,8.925 C 476.667,16.381 480.00,25.992 480.00,37.755 C 480.00,49.189 476.667,58.634 470.00,66.09 C 463.333,73.546 454.333,76.362 442.667,74.706 C 431.00,76.362 422.00,73.546 415.333,66.09 C 408.667,58.634 405.333,49.189 405.333,37.59 C 405.333,25.992 408.501,16.547 415.166,9.091 C 421.834,1.469 430.834-1.182 442.333,0.475 C 454.00-1.182 463.333,1.469 470.00,8.925 L 470.00,8.925 ZM 421.333,37.59 C 424.834,55.154 432.00,64.101 442.667,64.101 C 453.333,64.101 459.501,55.32 461.333,37.755 C 459.501,19.861 453.166,11.078 442.501,11.078 C 431.834,11.078 424.834,19.861 421.333,37.59 L 421.333,37.59 Z" data-tags="ui-icon-dollar-percent" />
<glyph unicode="&#xe04b;" d="M 179.44,128.00 L 171.12,160.00 L 215.36,160.00 C 220.851,177.483 229.243,193.675 240.00,208.00 L 158.64,208.00 L 121.04,352.00 L 448.00,352.00 L 448.00,250.56 C 466.731,239.72 483.062,225.213 496.00,208.00 L 496.00,352.00 L 496.00,400.00 L 448.00,400.00 L 108.56,400.00 L 96.00,448.00 L 80.00,448.00 L 48.00,448.00 L 16.00,448.00 L 16.00,400.00 L 60.56,400.00 L 144.00,80.00 L 160.00,80.00 L 192.00,80.00 L 211.20,80.00 C 209.101,90.339 208.00,101.042 208.00,112.00 C 208.00,117.40 208.272,122.738 208.80,128.00 L 179.44,128.00 ZM 379.125,6.25 L 356.875,6.25 L 356.875,28.531 C 344.531,28.531 329.75,32.187 312.344,39.656 L 312.344,61.922 C 328.688,54.25 343.469,50.437 356.875,50.781 L 356.875,102.078 L 350.61,105.922 C 335.656,114.781 325.563,122.437 320.344,129.032 C 314.954,135.656 312.344,143.656 312.344,153.046 C 312.344,164.531 316.344,174.094 324.344,181.75 C 332.344,189.39 343.125,193.906 356.875,195.469 L 356.875,217.742 L 379.125,217.742 L 379.125,195.469 C 393.75,194.437 408.531,190.781 423.656,184.344 L 423.656,162.094 C 408.344,169.219 393.39,172.875 379.125,173.219 L 379.125,123.298 L 384.531,120.00 C 399.469,110.968 409.75,103.125 415.298,96.875 C 420.875,90.61 423.656,82.781 423.656,73.75 C 423.656,61.75 419.656,51.656 411.656,43.656 C 403.656,35.469 392.875,30.437 379.125,28.531 L 379.125,6.25 ZM 240.00,112.00 C 240.00,41.298 297.312-16.00 368.00-16.00 C 438.702-16.00 496.00,41.298 496.00,112.00 C 496.00,182.688 438.702,240.00 368.00,240.00 C 297.312,240.00 240.00,182.688 240.00,112.00 ZM 379.125,88.344 L 379.125,50.781 C 386.437,53.75 390.25,59.656 390.25,68.344 C 390.25,74.968 386.437,81.563 379.125,88.344 ZM 345.75,156.531 C 345.75,149.39 349.39,142.781 356.875,136.875 L 356.875,173.219 C 349.39,170.094 345.75,164.531 345.75,156.531 ZM 176.00,56.00 C 193.672,56.00 208.00,41.672 208.00,24.00 C 208.00,6.328 193.672-8.00 176.00-8.00 C 158.328-8.00 144.00,6.328 144.00,24.00 C 144.00,41.672 158.328,56.00 176.00,56.00 ZM 432.00,56.00 C 449.672,56.00 464.00,41.672 464.00,24.00 C 464.00,6.328 449.672-8.00 432.00-8.00 C 414.328-8.00 400.00,6.328 400.00,24.00 C 400.00,41.672 414.328,56.00 432.00,56.00 Z" data-tags="ui-icon-cart-dollar" />
<glyph unicode="&#xe04c;" d="M 16.00,432.00 L 496.00,432.00 L 496.00,16.00 L 16.00,16.00 L 16.00,432.00 ZM 0.00,448.00 L 0.00,0.00 L 512.00,0.00 L 512.00,448.00 L 0.00,448.00 ZM 336.00,208.00 L 206.891,208.00 L 206.891,233.142 L 336.00,233.142 L 336.00,208.00 ZM 32.00,416.00 L 32.00,32.00 L 480.00,32.00 L 480.00,416.00 L 32.00,416.00 ZM 80.00,257.696 L 180.262,308.374 C 80.00,359.25 80.00,359.446 80.00,359.446 L 80.00,384.00 L 229.283,308.571 L 80.00,233.142 L 80.00,257.696 Z" data-tags="ui-icon-terminal" />
<glyph unicode="&#xe04d;" d="M 375.984,360.00 C 375.984,418.867 324.406,472.00 265.523,472.00 C 206.656,472.00 151.984,418.867 151.984,360.00 L 152.00,296.00 L 168.00,248.00 L 216.00,168.00 L 217.76,167.12 C 240.226,228.323 299.013,272.00 368.00,272.00 L 376.00,296.00 L 375.984,360.00 ZM 208.56,125.36 C 93.856,104.178 8.00,21.163 8.00-40.00 L 317.92-40.00 C 254.093-18.974 208.00,41.131 208.00,112.00 C 208.00,116.509 208.194,120.946 208.56,125.36 ZM 519.485-40.00 C 519.485-21.683 511.789-1.432 497.92,18.56 C 478.376-8.574 450.578-29.325 418.16-40.00 L 519.485-40.00 ZM 287.501,96.00 L 336.00,96.00 L 336.00,208.00 L 400.00,208.00 L 400.00,96.00 L 448.00,96.00 L 368.968,16.968 L 287.501,96.00 ZM 240.00,112.00 C 240.00,41.298 297.312-16.00 368.00-16.00 C 438.702-16.00 496.00,41.298 496.00,112.00 C 496.00,182.688 438.702,240.00 368.00,240.00 C 297.312,240.00 240.00,182.688 240.00,112.00 Z" data-tags="ui-icon-person-arrow-s" />
<glyph unicode="&#xe04e;" d="M 96.00,96.00 L 96.00,32.00 L 32.00,32.00 L 32.00,96.00 L 96.00,96.00 ZM 96.00,192.00 L 96.00,128.00 L 32.00,128.00 L 32.00,192.00 L 96.00,192.00 ZM 96.00,288.00 L 96.00,224.00 L 32.00,224.00 L 32.00,288.00 L 96.00,288.00 ZM 224.00,320.00 L 0.00,320.00 L 0.00-32.00 L 224.00-32.00 L 224.00,42.16 C 213.749,63.253 208.00,86.965 208.00,112.00 C 208.00,137.035 213.749,160.747 224.00,181.84 L 224.00,320.00 ZM 192.00,288.00 L 192.00,224.00 L 128.00,224.00 L 128.00,288.00 L 192.00,288.00 ZM 192.00,192.00 L 192.00,128.00 L 128.00,128.00 L 128.00,192.00 L 192.00,192.00 ZM 192.00,96.00 L 192.00,32.00 L 128.00,32.00 L 128.00,96.00 L 192.00,96.00 ZM 384.00,416.00 L 384.00,352.00 L 320.00,352.00 L 320.00,416.00 L 384.00,416.00 ZM 480.00,416.00 L 480.00,352.00 L 416.00,352.00 L 416.00,416.00 L 480.00,416.00 ZM 480.00,320.00 L 480.00,256.00 L 437.84,256.00 C 470.115,240.32 496.323,214.114 512.00,181.84 L 512.00,480.00 L 288.00,480.00 L 288.00,250.56 C 298.029,256.362 308.747,261.098 320.00,264.64 L 320.00,320.00 L 384.00,320.00 L 384.00,271.20 C 395.034,270.093 405.741,267.861 416.00,264.64 L 416.00,320.00 L 480.00,320.00 ZM 437.84-32.00 L 512.00-32.00 L 512.00,42.16 C 496.323,9.886 470.115-16.32 437.84-32.00 ZM 288.00-26.56 L 288.00-32.00 L 298.24-32.00 C 294.754-30.307 291.339-28.491 288.00-26.56 ZM 379.125,6.25 L 356.875,6.25 L 356.875,28.531 C 344.531,28.531 329.75,32.187 312.344,39.656 L 312.344,61.922 C 328.688,54.25 343.469,50.437 356.875,50.781 L 356.875,102.078 L 350.61,105.922 C 335.656,114.781 325.563,122.437 320.344,129.032 C 314.954,135.656 312.344,143.656 312.344,153.046 C 312.344,164.531 316.344,174.094 324.344,181.75 C 332.344,189.39 343.125,193.906 356.875,195.469 L 356.875,217.742 L 379.125,217.742 L 379.125,195.469 C 393.75,194.437 408.531,190.781 423.656,184.344 L 423.656,162.094 C 408.344,169.219 393.39,172.875 379.125,173.219 L 379.125,123.298 L 384.531,120.00 C 399.469,110.968 409.75,103.125 415.298,96.875 C 420.875,90.61 423.656,82.781 423.656,73.75 C 423.656,61.75 419.656,51.656 411.656,43.656 C 403.656,35.469 392.875,30.437 379.125,28.531 L 379.125,6.25 ZM 240.00,112.00 C 240.00,41.298 297.312-16.00 368.00-16.00 C 438.702-16.00 496.00,41.298 496.00,112.00 C 496.00,182.688 438.702,240.00 368.00,240.00 C 297.312,240.00 240.00,182.688 240.00,112.00 ZM 379.125,88.344 L 379.125,50.781 C 386.437,53.75 390.25,59.656 390.25,68.344 C 390.25,74.968 386.437,81.563 379.125,88.344 ZM 345.75,156.531 C 345.75,149.39 349.39,142.781 356.875,136.875 L 356.875,173.219 C 349.39,170.094 345.75,164.531 345.75,156.531 Z" data-tags="ui-icon-company-dollar" />
<glyph unicode="&#xe04f;" d="M 140.80,32.00 L 140.80,77.474 C 166.475,81.381 186.626,91.685 201.574,108.381 C 216.525,124.723 224.00,145.33 224.00,169.842 C 224.00,188.315 218.80,204.302 208.40,217.093 C 198.00,229.882 178.826,245.869 150.875,264.342 L 140.80,271.093 L 140.80,373.053 C 167.45,372.342 195.40,364.882 224.00,350.315 L 224.00,395.789 C 195.725,408.934 168.099,416.395 140.80,418.526 L 140.80,464.00 L 99.20,464.00 L 99.20,418.526 C 73.525,415.33 53.374,406.093 38.426,390.461 C 23.475,374.829 16.00,355.29 16.00,331.842 C 16.00,312.658 20.875,296.315 30.95,282.816 C 40.701,269.315 59.55,253.685 87.501,235.566 L 99.20,227.75 L 99.20,122.947 C 74.174,122.237 46.55,130.053 16.00,145.685 L 16.00,100.211 C 48.501,84.934 76.125,77.474 99.20,77.474 L 99.20,32.00 L 140.80,32.00 L 140.80,32.00 ZM 140.80,199.685 C 154.45,185.829 161.60,172.33 161.60,158.829 C 161.60,141.066 154.45,128.987 140.80,122.947 L 140.80,199.685 L 140.80,199.685 ZM 78.40,338.947 C 78.40,355.29 85.226,366.658 99.20,373.053 L 99.20,298.803 C 85.226,310.882 78.40,324.381 78.40,338.947 L 78.40,338.947 ZM 352.00,192.499 L 352.00,144.00 L 464.00,144.00 L 464.00,80.00 L 352.00,80.00 L 352.00,32.00 L 272.97,111.032 L 352.00,192.499 ZM 368.00,240.00 C 297.298,240.00 240.00,182.688 240.00,112.00 C 240.00,41.298 297.298-16.00 368.00-16.00 C 438.688-16.00 496.00,41.298 496.00,112.00 C 496.00,182.688 438.688,240.00 368.00,240.00 Z" data-tags="ui-icon-dollar-arrow-w" />
<glyph unicode="&#xe050;" d="M 478.858,370.494 L 273.142,265.496 L 273.12,240.88 C 299.662,260.45 332.491,272.00 368.00,272.00 C 420.342,272.00 466.81,246.851 496.00,208.00 L 496.00,379.554 L 273.142,480.00 L 16.00,352.995 L 16.00,72.998 L 273.142-32.00 L 285.60-25.20 C 267.518-14.312 251.784,0.04 239.28,16.96 L 33.142,92.013 L 33.142,335.494 L 273.142,265.496 L 273.142,454.712 L 478.858,370.494 ZM 287.501,96.00 L 336.00,96.00 L 336.00,208.00 L 400.00,208.00 L 400.00,96.00 L 448.00,96.00 L 368.958,16.958 L 287.501,96.00 ZM 240.00,112.00 C 240.00,41.299 297.306-16.00 368.00-16.00 C 438.701-16.00 496.00,41.299 496.00,112.00 C 496.00,182.694 438.701,240.00 368.00,240.00 C 297.306,240.00 240.00,182.694 240.00,112.00 Z" data-tags="ui-icon-box-arrow-s" />
<glyph unicode="&#xe051;" d="M 478.858,370.494 L 273.142,265.496 L 273.12,240.88 C 299.662,260.45 332.491,272.00 368.00,272.00 C 420.342,272.00 466.81,246.851 496.00,208.00 L 496.00,379.554 L 273.142,480.00 L 16.00,352.995 L 16.00,72.998 L 273.142-32.00 L 285.60-25.20 C 267.518-14.312 251.784,0.04 239.28,16.96 L 33.142,92.013 L 33.142,335.494 L 273.142,265.496 L 273.142,454.712 L 478.858,370.494 ZM 379.13,6.261 L 356.87,6.261 L 356.87,28.52 C 344.52,28.52 329.739,32.181 312.35,39.65 L 312.35,61.92 C 328.694,54.261 343.48,50.44 356.87,50.781 L 356.87,102.08 L 350.61,105.92 C 335.65,114.779 325.565,122.44 320.35,129.04 C 314.955,135.65 312.35,143.65 312.35,153.045 C 312.35,164.52 316.35,174.085 324.35,181.739 C 332.35,189.39 343.13,193.915 356.87,195.48 L 356.87,217.741 L 379.13,217.741 L 379.13,195.48 C 393.741,194.435 408.52,190.781 423.65,184.35 L 423.65,162.085 C 408.35,169.214 393.39,172.87 379.13,173.219 L 379.13,123.301 L 384.52,120.00 C 399.48,110.96 409.741,103.13 415.299,96.87 C 420.87,90.61 423.65,82.779 423.65,73.739 C 423.65,61.741 419.65,51.65 411.65,43.65 C 403.65,35.48 392.87,30.44 379.13,28.52 L 379.13,6.261 ZM 240.00,112.00 C 240.00,41.299 297.306-16.00 368.00-16.00 C 438.701-16.00 496.00,41.299 496.00,112.00 C 496.00,182.694 438.701,240.00 368.00,240.00 C 297.306,240.00 240.00,182.694 240.00,112.00 ZM 379.13,88.35 L 379.13,50.781 C 386.44,53.741 390.259,59.65 390.259,68.35 C 390.259,74.96 386.44,81.56 379.13,88.35 ZM 345.739,156.52 C 345.739,149.39 349.39,142.779 356.87,136.87 L 356.87,173.219 C 349.39,170.091 345.739,164.52 345.739,156.52 Z" data-tags="ui-icon-box-dollar" />
<glyph unicode="&#xe052;" d="M 256.00,452.12 L 16.00,336.00 L 16.00,80.00 L 256.00-16.00 L 464.00,96.00 L 464.00,360.283 L 256.00,452.12 ZM 256.00,256.00 L 256.00,429.00 L 448.00,352.00 L 256.00,256.00 ZM 32.00,320.00 L 256.00,256.00 L 256.00,205.00 L 256.00,17.499 L 32.00,97.384 L 32.00,320.00 Z" data-tags="ui-icon-box" />
<glyph unicode="&#xe053;" d="M 336.00,352.00 L 176.00,352.00 L 176.00,416.00 L 336.00,416.00 L 336.00,352.00 ZM 0.00,352.00 L 0.00,144.00 L 208.00,144.00 L 208.00,176.00 L 289.184,176.00 L 289.184,144.00 L 512.00,144.00 L 512.00,352.00 L 368.00,352.00 L 368.00,416.00 L 368.00,448.00 L 336.00,448.00 L 176.00,448.00 L 144.00,448.00 L 144.00,416.00 L 144.00,352.00 L 0.00,352.00 ZM 0.00,96.00 L 0.00-32.00 L 512.00-32.00 L 512.00,96.00 L 0.00,96.00 Z" data-tags="ui-icon-toolbox" />
<glyph unicode="&#xe054;" d="M 112.00,208.00 L 400.00,208.00 L 400.00,0.00 L 112.00,0.00 L 112.00,208.00 ZM 112.00,448.00 L 400.00,448.00 L 400.00,240.00 L 112.00,240.00 L 112.00,448.00 ZM 464.00,16.00 L 496.00,16.00 L 496.00-16.00 L 464.00-16.00 L 464.00,16.00 ZM 464.00,144.00 L 496.00,144.00 L 496.00,112.00 L 464.00,112.00 L 464.00,144.00 ZM 464.00,272.00 L 496.00,272.00 L 496.00,240.00 L 464.00,240.00 L 464.00,272.00 ZM 464.00,400.00 L 496.00,400.00 L 496.00,368.00 L 464.00,368.00 L 464.00,400.00 ZM 464.00,464.00 L 496.00,464.00 L 496.00,432.00 L 464.00,432.00 L 464.00,464.00 ZM 464.00,336.00 L 496.00,336.00 L 496.00,304.00 L 464.00,304.00 L 464.00,336.00 ZM 464.00,208.00 L 496.00,208.00 L 496.00,176.00 L 464.00,176.00 L 464.00,208.00 ZM 464.00,80.00 L 496.00,80.00 L 496.00,48.00 L 464.00,48.00 L 464.00,80.00 ZM 16.00,16.00 L 48.00,16.00 L 48.00-16.00 L 16.00-16.00 L 16.00,16.00 ZM 16.00,144.00 L 48.00,144.00 L 48.00,112.00 L 16.00,112.00 L 16.00,144.00 ZM 16.00,272.00 L 48.00,272.00 L 48.00,240.00 L 16.00,240.00 L 16.00,272.00 ZM 16.00,400.00 L 48.00,400.00 L 48.00,368.00 L 16.00,368.00 L 16.00,400.00 ZM 0.00,480.00 L 0.00-48.00 L 56.40-48.00 L 56.39-50.066 L 456.246-48.00 L 512.00-48.00 L 512.00,480.00 L 458.32,480.00 L 458.296,483.075 L 60.491,487.178 L 60.40,480.00 L 0.00,480.00 ZM 16.00,464.00 L 48.00,464.00 L 48.00,432.00 L 16.00,432.00 L 16.00,464.00 ZM 16.00,336.00 L 48.00,336.00 L 48.00,304.00 L 16.00,304.00 L 16.00,336.00 ZM 16.00,208.00 L 48.00,208.00 L 48.00,176.00 L 16.00,176.00 L 16.00,208.00 ZM 16.00,80.00 L 48.00,80.00 L 48.00,48.00 L 16.00,48.00 L 16.00,80.00 Z" data-tags="ui-icon-video-a" />
<glyph unicode="&#xe055;" d="M 368.00,384.00 C 368.00,366.326 382.326,352.00 400.00,352.00 C 417.674,352.00 432.00,366.326 432.00,384.00 C 432.00,401.674 417.674,416.00 400.00,416.00 C 382.326,416.00 368.00,401.674 368.00,384.00 ZM 48.00,16.00 L 464.00,16.00 L 414.00,80.00 L 368.00,48.00 L 304.00,206.00 C 304.00,206.00 240.00,112.00 240.00,110.00 C 240.00,108.00 160.00,368.00 160.00,368.00 L 48.00,16.00 ZM 16.00,464.00 L 496.00,464.00 L 496.00-16.00 L 16.00-16.00 L 16.00,464.00 ZM 0.00,480.00 L 0.00-32.00 L 512.00-32.00 L 512.00,480.00 L 0.00,480.00 Z" data-tags="ui-icon-image-b" />
<glyph unicode="&#xe056;" d="M 368.00,384.00 C 368.00,401.674 382.326,416.00 400.00,416.00 C 417.674,416.00 432.00,401.674 432.00,384.00 C 432.00,366.326 417.674,352.00 400.00,352.00 C 382.326,352.00 368.00,366.326 368.00,384.00 ZM 0.00,480.00 L 0.00-32.00 L 512.00-32.00 L 512.00,480.00 L 0.00,480.00 ZM 48.00,16.00 L 160.00,368.00 C 160.00,368.00 240.00,108.00 240.00,110.00 C 240.00,112.00 304.00,206.00 304.00,206.00 L 368.00,48.00 L 414.00,80.00 L 464.00,16.00 L 48.00,16.00 Z" data-tags="ui-icon-a" />
<glyph unicode="&#xe057;" d="M 64.00,480.00L 448.00,480.00L 448.00,448.00L 64.00,448.00zM 48.00,0.00L 464.00,0.00L 464.00-32.00L 48.00-32.00zM 96.00,448.00 C 96.00,448.00 96.00,562.877 96.00,448.00 ZM 100.32,400.00 C 116.989,308.264 180.341,208.00 256.00,208.00 C 331.659,208.00 395.011,308.264 411.68,400.00 L 100.32,400.00 ZM 416.00,0.00 C 416.00,0.00 416.00-114.877 416.00,0.00 ZM 411.621,48.00 C 394.725,139.736 330.504,240.00 253.811,240.00 C 177.117,240.00 112.896,139.736 96.00,48.00 L 411.621,48.00 Z" data-tags="ui-icon-hourglass" />
<glyph unicode="&#xe058;" d="M 304.00,224.00 L 496.00,32.00 L 480.00,16.00 L 288.00,208.00 L 304.00,224.00 ZM 200.16,183.84 L 224.25,159.75 L 272.00,177.84 L 272.00,128.00 L 304.00,144.00 L 304.00,96.00 L 336.00,112.00 L 336.00,64.00 L 368.00,80.00 L 368.00,32.00 L 401.144,49.086 L 401.144,0.00 L 432.00,16.00 L 432.00-32.00 L 512.909-32.00 L 512.00,64.00 L 296.16,279.84 C 301.224,294.981 304.00,311.154 304.00,328.00 C 304.00,411.949 235.949,480.00 152.00,480.00 C 68.051,480.00 0.00,411.949 0.00,328.00 C 0.00,244.051 68.051,176.00 152.00,176.00 C 168.846,176.00 185.014,178.781 200.16,183.84 ZM 208.00,384.408 L 95.592,272.00 C 58.342,309.25 53.31,364.608 84.35,395.65 C 115.392,426.69 170.75,421.658 208.00,384.408 Z" data-tags="ui-icon-key" />
</font>
</defs>
</svg>
